
<svg xmlns="http://www.w3.org/2000/svg" version="1.1" xmlns:xlink="http://www.w3.org/1999/xlink" preserveAspectRatio="none" x="0px" y="0px" width="32px" height="21px" viewBox="0 0 32 21">
<defs>
<g id="Layer0_0_FILL">
<path fill="#000000" stroke="none" d="
M 4.35 9.15
L 0 9.15 0 21.25 4.9 21.25
Q 7.15 21.25 8.25 20.35 9.4 19.45 9.4 17.65 9.4 16.7 8.85 16 8.35 15.35 7.4 15.1 8.25 14.75 8.7 14.1 9.1 13.45 9.1 12.5 9.1 10.85 7.9 10 6.7 9.15 4.35 9.15
M 2.95 11.4
L 4.35 11.4
Q 5.35 11.4 5.75 11.75 6.2 12.1 6.2 12.85 6.2 13.5 5.8 13.85 5.4 14.2 4.45 14.2
L 2.95 14.2 2.95 11.4
M 2.95 16.1
L 4.95 16.1
Q 6.45 16.1 6.45 17.65 6.45 18.3 6.05 18.65 5.6 19 4.85 19
L 2.95 19 2.95 16.1
M 17.2 9.15
L 14.45 9.15 10.05 21.25 13.15 21.25 13.85 19 17.85 19 18.55 21.25 21.65 21.25 17.2 9.15
M 15.85 12.55
L 17.15 16.75 14.55 16.75 15.85 12.55
M 10.15 6.35
L 10.6 7.8 12.6 7.8 9.7 0 7.95 0 5.1 7.8 7.1 7.8 7.55 6.35 10.15 6.35
M 8 4.9
L 8.85 2.15 9.7 4.9 8 4.9
M 17.8 0
L 17.8 4.85 15.05 0 13.15 0 13.15 7.8 15.05 7.8 15.05 2.95 17.8 7.8 19.65 7.8 19.65 0 17.8 0
M 27.25 9.15
L 22.5 9.15 22.5 21.25 25.45 21.25 25.45 17 27 17 29.15 21.25 32.25 21.25 32.25 21.15 29.75 16.25
Q 30.8 15.75 31.35 14.9 31.85 14.05 31.85 12.8 31.85 11.05 30.65 10.1 29.4 9.15 27.25 9.15
M 27.25 11.4
Q 28.1 11.4 28.5 11.85 28.95 12.3 28.95 13.1 28.95 13.85 28.5 14.3 28.1 14.75 27.25 14.75
L 25.45 14.75 25.45 11.4 27.25 11.4
M 20.25 0
L 22.75 5 22.75 7.8 24.65 7.8 24.65 5 27.2 0 25.15 0 23.7 3.35 22.25 0 20.25 0 Z"/>
</g>
</defs>

<g transform="matrix( 1, 0, 0, 1, 0,0) ">
<use xlink:href="#Layer0_0_FILL"/>
</g>
</svg>
