
<svg xmlns="http://www.w3.org/2000/svg" version="1.1" xmlns:xlink="http://www.w3.org/1999/xlink" preserveAspectRatio="none" x="0px" y="0px" width="720px" height="110px" viewBox="0 0 720 110">
<defs>
<g id="Layer0_0_FILL">
<path fill="#FFFFFF" stroke="none" d="
M 232.95 20
Q 232.95 5 217.95 5
L 127.45 5 110.45 43.45 127.45 82 217.95 82
Q 232.95 82 232.95 67
L 232.95 20
M 339.6 42.6
L 339.6 52.55 371.1 42.6 339.6 42.6
M 339.6 32.55
L 339.6 42.6 371.1 42.6 339.6 32.55
M 673.95 65
Q 673.95 64.9 673.95 64.75 673.25 58.9 640.25 54.75 606.6 50.5 558.95 50.5 511.3 50.5 477.6 54.75 448.55 58.4 444.6 63.4 443.95 64.2 443.95 65 443.95 71 477.6 75.25 511.3 79.5 558.95 79.5 606.6 79.5 640.25 75.25 673.95 71 673.95 65
M 673.95 31.95
Q 673.95 31.7 673.9 31.5 672.45 25.8 640.25 21.75 606.6 17.5 558.95 17.5 511.3 17.5 477.6 21.75 444.1 26 443.95 31.95
L 443.95 32.05
Q 444.1 38 477.6 42.25 481.1 42.7 484.8 43.1 516.25 46.5 558.95 46.5 602.45 46.5 634.3 42.95 637.35 42.6 640.25 42.25 673.75 38 673.95 32.1
L 673.95 31.95
M 673.95 47.15
L 673.95 32.1
Q 673.75 38 640.25 42.25 637.35 42.6 634.3 42.95 602.45 46.5 558.95 46.5 516.25 46.5 484.8 43.1 481.1 42.7 477.6 42.25 444.1 38 443.95 32.05
L 443.95 47.6 443.95 62.65 444.6 63.4
Q 448.55 58.4 477.6 54.75 511.3 50.5 558.95 50.5 606.6 50.5 640.25 54.75 673.25 58.9 673.95 64.75
L 673.95 47.15 Z"/>
</g>

<path id="Layer0_0_1_STROKES" stroke="#FFFFFF" stroke-width="10" stroke-linejoin="round" stroke-linecap="round" fill="none" d="
M 673.95 47.15
Q 715.95 53.15 715.95 61.5 715.95 70.2 670.4 76.35 624.85 82.5 560.45 82.5 496.05 82.5 450.5 76.35 404.95 70.2 404.95 61.5 404.95 53.45 443.95 47.6
M 127.45 5
L 217.95 5
Q 232.95 5 232.95 20
L 232.95 67
Q 232.95 82 217.95 82
L 127.45 82 110.45 43.45 127.45 5 20 5
Q 5 5 5 20
L 5 67
Q 5 82 20 82"/>

<path id="Layer0_0_2_STROKES" stroke="#FFFFFF" stroke-width="4" stroke-linejoin="round" stroke-linecap="round" fill="none" d="
M 371.1 42.6
L 339.6 32.55 339.6 42.6 371.1 42.6 339.6 52.55 339.6 42.6 260.05 42.6"/>

<path id="Layer0_0_3_STROKES" stroke="#FFFFFF" stroke-width="6" stroke-linejoin="round" stroke-linecap="round" fill="none" d="
M 673.95 64.75
L 673.95 47.15 673.95 32.1
Q 673.75 38 640.25 42.25 637.35 42.6 634.3 42.95 602.45 46.5 558.95 46.5 516.25 46.5 484.8 43.1 481.1 42.7 477.6 42.25 444.1 38 443.95 32.05
L 443.95 47.6 443.95 62.65
M 444.6 63.4
Q 448.55 58.4 477.6 54.75 511.3 50.5 558.95 50.5 606.6 50.5 640.25 54.75 673.25 58.9 673.95 64.75 673.95 64.9 673.95 65 673.95 71 640.25 75.25 606.6 79.5 558.95 79.5 511.3 79.5 477.6 75.25 443.95 71 443.95 65 443.95 64.2 444.6 63.4 Z
M 443.95 32.05
L 443.95 31.95
Q 444.1 26 477.6 21.75 511.3 17.5 558.95 17.5 606.6 17.5 640.25 21.75 672.45 25.8 673.9 31.5 673.95 31.7 673.95 31.95
L 673.95 32.1
M 77.65 50.15
L 81.65 50.15 87.4 54.65 87.4 55.15 92.7 55.15 98.45 59.65 98.45 83.45 88.95 107.45 52.45 107.45 52.45 97.6 32.45 66.95 32.45 57.6 40.05 57.6 47.8 67.2
M 87.4 55.15
L 87.4 62.9
M 48.95 74.1
L 48.95 31.35 55.7 25.6 62.45 31.1 62.45 45.1 69.8 45.1 75.55 49.6 75.55 57.85
M 62.45 45.1
L 62.45 57.85"/>
</defs>

<g transform="matrix( 1, 0, 0, 1, 0,0) ">
<use xlink:href="#Layer0_0_FILL"/>

<use xlink:href="#Layer0_0_1_STROKES"/>

<use xlink:href="#Layer0_0_2_STROKES"/>

<use xlink:href="#Layer0_0_3_STROKES"/>
</g>
</svg>
