
<svg xmlns="http://www.w3.org/2000/svg" version="1.1" xmlns:xlink="http://www.w3.org/1999/xlink" preserveAspectRatio="none" x="0px" y="0px" width="630px" height="304px" viewBox="0 0 630 304">
<defs>
<g id="Layer0_0_FILL">
<path fill="#FFFFFF" stroke="#FFFFFF"  stroke-width="0" stroke-linejoin="round" stroke-linecap="round" d="
M 287.75 270.3
Q 287.85 270.15 287.85 270 287.85 268.15 272.45 266.8 257.1 265.5 235.35 265.5 213.6 265.5 198.2 266.8 182.85 268.15 182.85 270 182.85 270.15 182.95 270.3 184.1 271.95 198.2 273.15 213.6 274.5 235.35 274.5 257.1 274.5 272.45 273.15 286.6 271.95 287.75 270.3
M 218.85 73.6
Q 218.7 73.45 218.55 73.35 217.95 72.9 217.2 72.9 216.95 72.9 216.7 72.95
L 134.35 72.95
Q 121.9 152.95 134.35 231.95
L 216.7 231.95
Q 216.95 232 217.2 232 218.1 232 218.75 231.4
L 218.8 231.4
Q 218.8 231.35 218.85 231.3 219.55 230.6 219.55 229.65 219.55 229.5 219.5 229.4
L 219.5 75.5
Q 219.55 75.4 219.55 75.25 219.55 74.3 218.85 73.6
L 218.5 74.25 218.85 73.6
M 358.05 231.95
Q 369.95 152.45 358.05 72.95
L 267.55 72.95
Q 254.65 151.45 267.55 231.95
L 358.05 231.95
M 513.05 33.25
Q 513.05 29.95 486.8 27.6 460.6 25.25 423.55 25.25 386.5 25.25 360.25 27.6 334.05 29.95 334.05 33.25 334.05 36.55 360.25 38.9 386.5 41.25 423.55 41.25 460.6 41.25 486.8 38.9 513.05 36.55 513.05 33.25
M 405.1 75.25
Q 405.1 75.4 405.15 75.5
L 405.15 229.4
Q 405.1 229.5 405.1 229.65 405.1 230.6 405.8 231.3 405.85 231.35 405.9 231.4 406.55 232 407.45 232 407.7 232 407.95 231.95
L 490.3 231.95
Q 502.75 152.95 490.3 72.95
L 407.95 72.95
Q 407.7 72.9 407.45 72.9 406.7 72.9 406.1 73.35
L 406.25 73.6 406.1 73.35
Q 405.95 73.45 405.8 73.6 405.1 74.3 405.1 75.25 Z"/>
</g>

<path id="Layer0_0_1_STROKES" stroke="#FFFFFF" stroke-width="" stroke-linejoin="round" stroke-linecap="round" fill="none" d="
M 513.05 33.25
L 596.4 33.25
Q 598.85 33.35 600.6 35.05 602.4 36.9 602.4 39.5
L 602.4 264.05
Q 602.4 265.95 601.45 267.5
M 311.85 33.25
L 334.05 33.25
M 601.45 267.5
Q 601.05 268 600.6 268.5 598.85 270.2 596.4 270.3
L 314.55 270.3 287.75 270.3
M 182.95 270.3
L 33.35 270.3
Q 30.9 270.2 29.15 268.5 28.7 268 28.35 267.5
M 27.35 152.75
L 27.35 39.5
Q 27.35 36.9 29.15 35.05 30.9 33.35 33.35 33.25
L 311.85 33.25
M 28.35 267.5
Q 27.35 265.95 27.35 264.05
L 27.35 152.75"/>

<path id="Layer0_0_2_STROKES" stroke="#FFFFFF" stroke-width="2" stroke-linejoin="round" stroke-linecap="round" fill="none" d="
M 14.6 33
Q 17.75 22.45 27.6 21 165.4 1.55 314.55 1 315.3 1 316.05 1 465.2 1.55 603 21 612.85 22.45 616 33 629.8 88.7 629.55 149.65 629.6 152.1 629.6 154.5 629.85 215.45 616.05 271.15 612.9 281.7 603.05 283.15 465.25 302.6 316.1 303.15 315.35 303.15 314.6 303.15 165.45 302.6 27.65 283.15 17.8 281.7 14.65 271.15 0.85 215.45 1.05 154.5 1 152.1 1.05 149.65 0.8 88.7 14.6 33 Z"/>

<path id="Layer0_0_3_STROKES" stroke="#FFFFFF" stroke-width="0.5" stroke-linejoin="round" stroke-linecap="round" fill="none" d="
M 537.6 62.95
L 537.2 63.1
M 406.25 73.6
L 406.1 73.35
M 537.55 240.45
L 537.2 240.4
M 218.5 74.25
L 218.85 73.6"/>

<path id="Layer0_0_4_STROKES" stroke="#FFFFFF" stroke-width="1.5" stroke-linejoin="round" stroke-linecap="round" fill="none" d="
M 601.45 267.5
Q 601.9 267.5 602.4 267.55
M 311.85 62.1
L 386.7 62.1
Q 386.95 62.05 387.2 62.05 388.15 62.05 388.85 62.75 389 62.9 389.1 63.05 389.55 63.65 389.55 64.4 389.55 64.55 389.5 64.65
L 389.5 238.75
Q 389.55 238.85 389.55 239 389.55 239.95 388.85 240.65 388.15 241.35 387.2 241.35 386.95 241.35 386.7 241.3
L 314.55 241.3
M 27.35 267.55
Q 27.85 267.5 28.35 267.5
M 490.3 72.95
L 497.2 72.95
Q 497.45 72.9 497.7 72.9 498.65 72.9 499.35 73.6 499.5 73.75 499.6 73.9 499.65 73.9 499.65 73.95 500.05 74.55 500.05 75.25 500.05 75.4 500 75.5
L 500 229.4
Q 500.05 229.5 500.05 229.65 500.05 230.45 499.6 231.05
M 401.6 241.35
Q 401.85 241.35 402.05 241.3
L 534.8 241.3
Q 535.05 241.35 535.3 241.35 536.25 241.35 536.95 240.65 537.1 240.5 537.2 240.4 537.65 239.75 537.65 239 537.65 238.85 537.6 238.75
L 537.6 152.75 537.6 64.65
Q 537.65 64.55 537.65 64.4 537.65 63.65 537.2 63.1
L 537.2 63.05
Q 537.1 62.9 536.95 62.75 536.25 62.05 535.3 62.05 535.05 62.05 534.8 62.1
L 402.05 62.1
Q 401.8 62.05 401.55 62.05 400.6 62.05 399.9 62.75 399.2 63.45 399.2 64.4 399.2 64.55 399.25 64.65
L 399.25 238.75
Q 399.2 238.85 399.2 239 399.2 239.95 399.9 240.65 400.6 241.35 401.55 241.35
L 401.6 241.35 Z
M 490.3 231.95
L 407.95 231.95
Q 407.7 232 407.45 232 406.55 232 405.9 231.4 405.85 231.35 405.8 231.3 405.1 230.6 405.1 229.65 405.1 229.5 405.15 229.4
L 405.15 75.5
Q 405.1 75.4 405.1 75.25 405.1 74.3 405.8 73.6 405.95 73.45 406.1 73.35 406.7 72.9 407.45 72.9 407.7 72.9 407.95 72.95
L 490.3 72.95
Q 502.75 152.95 490.3 231.95
L 497.2 231.95
Q 497.45 232 497.7 232 498.65 232 499.35 231.3 499.5 231.15 499.6 231.05
M 358.05 231.95
L 364.8 231.95
Q 365.05 232 365.3 232 366.25 232 366.95 231.3 367.65 230.6 367.65 229.65 367.65 229.5 367.6 229.4
L 367.6 75.5
Q 367.65 75.4 367.65 75.25 367.65 74.3 366.95 73.6 366.25 72.9 365.3 72.9 365.05 72.9 364.8 72.95
L 358.05 72.95
Q 369.95 152.45 358.05 231.95
L 267.55 231.95 260.3 231.95
Q 260.05 232 259.8 232 258.85 232 258.15 231.3 257.45 230.6 257.45 229.65 257.45 229.5 257.5 229.4
L 257.5 75.5
Q 257.45 75.4 257.45 75.25 257.45 74.3 258.15 73.6 258.85 72.9 259.8 72.9 260.05 72.9 260.3 72.95
L 267.55 72.95 358.05 72.95
M 87.45 63.1
L 87.45 63.05
Q 87.45 63 87.5 62.95 87.6 62.85 87.7 62.75 88.4 62.05 89.35 62.05 89.6 62.05 89.85 62.1
L 222.6 62.1
Q 222.85 62.05 223.1 62.05 224.05 62.05 224.75 62.75 225.45 63.45 225.45 64.4 225.45 64.55 225.4 64.65
L 225.4 238.75
Q 225.45 238.85 225.45 239 225.45 239.95 224.75 240.65 224.05 241.35 223.1 241.35 222.85 241.35 222.65 241.3
L 89.85 241.3
Q 89.6 241.35 89.35 241.35 88.4 241.35 87.7 240.65 87.6 240.55 87.55 240.45 87.5 240.4 87.5 240.35
M 311.85 62.1
L 237.95 62.1
Q 237.7 62.05 237.45 62.05 236.5 62.05 235.8 62.75 235.1 63.45 235.1 64.4 235.1 64.55 235.15 64.65
L 235.15 238.75
Q 235.1 238.85 235.1 239 235.1 239.95 235.8 240.65 236.5 241.35 237.45 241.35 237.7 241.35 237.95 241.3
L 314.55 241.3
M 218.85 73.6
Q 218.7 73.45 218.55 73.35 217.95 72.9 217.2 72.9 216.95 72.9 216.7 72.95
L 134.35 72.95
Q 121.9 152.95 134.35 231.95
L 216.7 231.95
Q 216.95 232 217.2 232 218.1 232 218.75 231.4
L 218.8 231.4
Q 218.8 231.35 218.85 231.3 219.55 230.6 219.55 229.65 219.55 229.5 219.5 229.4
L 219.5 75.5
Q 219.55 75.4 219.55 75.25 219.55 74.3 218.85 73.6 Z
M 87.5 240.35
Q 87 239.75 87 239 87 238.85 87.05 238.75
L 87.05 64.65
Q 87 64.55 87 64.4 87 63.65 87.45 63.1
M 134.35 72.95
L 127.45 72.95
Q 127.2 72.9 126.95 72.9 126 72.9 125.3 73.6 125.15 73.75 125.05 73.9
L 125 73.95
Q 124.6 74.55 124.6 75.25 124.6 75.4 124.65 75.5
L 124.65 229.4
Q 124.6 229.5 124.6 229.65 124.6 230.4 125.05 231.05 125.15 231.15 125.3 231.3 126 232 126.95 232 127.2 232 127.45 231.95
L 134.35 231.95
M 267.55 72.95
Q 254.65 151.45 267.55 231.95"/>

<path id="Layer0_0_5_STROKES" stroke="#666666" stroke-width="0.5" stroke-linejoin="round" stroke-linecap="round" fill="none" d="
M 311.85 62.1
L 311.85 33.25
M 314.55 256.65
L 314.55 241.3
M 536.75 63.1
L 499.6 73.9
M 536.75 240.4
L 499.6 231.05
M 401.6 241.35
L 405.45 231.4
M 601.95 152.75
L 537.6 152.75
M 405.65 73.35
L 400.25 63.4
M 87.1 240.45
L 87.5 240.35
M 218.55 73.35
L 223.95 63.4
M 87.05 62.95
L 87.45 63.1 124.6 73.9
M 26.9 152.75
L 27.35 152.75 86.6 152.75
M 87.5 240.35
L 124.6 231.05
M 314.55 270.3
L 314.55 256.65
M 222.65 241.3
L 218.8 231.4"/>

<path id="Layer0_0_6_STROKES" stroke="#666666" stroke-width="1.5" stroke-linejoin="round" stroke-linecap="round" fill="none" d="
M 314.55 256.65
Q 314.8 256.65 315 256.65 458.45 256.65 601.45 267.5
M 28.35 267.5
Q 171.65 256.65 314.55 256.65"/>

<path id="Layer0_0_7_STROKES" stroke="#FFFFFF" stroke-width="0.1" stroke-linejoin="round" stroke-linecap="round" fill="none" d="
M 334.05 33.25
Q 334.05 29.95 360.25 27.6 386.5 25.25 423.55 25.25 460.6 25.25 486.8 27.6 513.05 29.95 513.05 33.25 513.05 36.55 486.8 38.9 460.6 41.25 423.55 41.25 386.5 41.25 360.25 38.9 334.05 36.55 334.05 33.25 Z
M 287.75 270.3
Q 286.6 271.95 272.45 273.15 257.1 274.5 235.35 274.5 213.6 274.5 198.2 273.15 184.1 271.95 182.95 270.3 182.85 270.15 182.85 270 182.85 268.15 198.2 266.8 213.6 265.5 235.35 265.5 257.1 265.5 272.45 266.8 287.85 268.15 287.85 270 287.85 270.15 287.75 270.3 Z"/>
</defs>

<g transform="matrix( 1, 0, 0, 1, 0,0) ">
<use xlink:href="#Layer0_0_6_STROKES"/>
<use xlink:href="#Layer0_0_2_STROKES"/>
<use xlink:href="#Layer0_0_3_STROKES"/>

<use xlink:href="#Layer0_0_7_STROKES"/>
<use xlink:href="#Layer0_0_5_STROKES"/>
<use xlink:href="#Layer0_0_4_STROKES"/>
<use xlink:href="#Layer0_0_1_STROKES"/>

<use xlink:href="#Layer0_0_FILL"/>








</g>
</svg>
