
<svg xmlns="http://www.w3.org/2000/svg" version="1.1" xmlns:xlink="http://www.w3.org/1999/xlink" preserveAspectRatio="none" x="0px" y="0px" width="1000px" height="800px" viewBox="0 0 1000 800">
<defs>
<linearGradient id="Gradient_1" gradientUnits="userSpaceOnUse" x1="615.3125" y1="258.0125" x2="664.0875000000001" y2="243.9875" spreadMethod="pad">
<stop  offset="0%" stop-color="#FFFFFF"/>

<stop  offset="100%" stop-color="#FFFFFF" stop-opacity="0"/>
</linearGradient>

<linearGradient id="Gradient_2" gradientUnits="userSpaceOnUse" x1="661.6750000000001" y1="211.4375" x2="682.725" y2="245.66250000000002" spreadMethod="pad">
<stop  offset="0%" stop-color="#FFFFFF"/>

<stop  offset="100%" stop-color="#FFFFFF" stop-opacity="0"/>
</linearGradient>

<linearGradient id="Gradient_3" gradientUnits="userSpaceOnUse" x1="587" y1="332.575" x2="587" y2="366.325" spreadMethod="pad">
<stop  offset="0%" stop-color="#FFFFFF"/>

<stop  offset="100%" stop-color="#FFFFFF" stop-opacity="0"/>
</linearGradient>

<linearGradient id="Gradient_4" gradientUnits="userSpaceOnUse" x1="511.925" y1="261.3625" x2="641.575" y2="327.6375" spreadMethod="pad">
<stop  offset="0%" stop-color="#FFFFFF"/>

<stop  offset="100%" stop-color="#FFFFFF" stop-opacity="0"/>
</linearGradient>

<linearGradient id="Gradient_5" gradientUnits="userSpaceOnUse" x1="482.36249999999995" y1="279.8" x2="482.9375" y2="306.8" spreadMethod="pad">
<stop  offset="0%" stop-color="#FFFFFF"/>

<stop  offset="100%" stop-color="#FFFFFF" stop-opacity="0"/>
</linearGradient>

<linearGradient id="Gradient_6" gradientUnits="userSpaceOnUse" x1="563.8375000000001" y1="281.1625" x2="564.5625" y2="322.5375" spreadMethod="pad">
<stop  offset="0%" stop-color="#FFFFFF"/>

<stop  offset="100%" stop-color="#FFFFFF" stop-opacity="0"/>
</linearGradient>

<linearGradient id="Gradient_7" gradientUnits="userSpaceOnUse" x1="444.25" y1="255.125" x2="446.35" y2="315.475" spreadMethod="pad">
<stop  offset="0%" stop-color="#FFFFFF"/>

<stop  offset="100%" stop-color="#FFFFFF" stop-opacity="0"/>
</linearGradient>

<linearGradient id="Gradient_8" gradientUnits="userSpaceOnUse" x1="480.71250000000003" y1="221.875" x2="519.3875" y2="245.425" spreadMethod="pad">
<stop  offset="0%" stop-color="#FFFFFF"/>

<stop  offset="100%" stop-color="#FFFFFF" stop-opacity="0"/>
</linearGradient>

<linearGradient id="Gradient_9" gradientUnits="userSpaceOnUse" x1="483.2625" y1="195.83749999999998" x2="566.2375" y2="222.0625" spreadMethod="pad">
<stop  offset="0%" stop-color="#FFFFFF"/>

<stop  offset="100%" stop-color="#FFFFFF" stop-opacity="0"/>
</linearGradient>

<linearGradient id="Gradient_10" gradientUnits="userSpaceOnUse" x1="464.875" y1="196.1125" x2="464.725" y2="178.3875" spreadMethod="pad">
<stop  offset="0%" stop-color="#FFFFFF"/>

<stop  offset="100%" stop-color="#FFFFFF" stop-opacity="0"/>
</linearGradient>

<linearGradient id="Gradient_11" gradientUnits="userSpaceOnUse" x1="531.0500000000001" y1="250.52499999999998" x2="529.65" y2="214.875" spreadMethod="pad">
<stop  offset="0%" stop-color="#FFFFFF"/>

<stop  offset="100%" stop-color="#FFFFFF" stop-opacity="0"/>
</linearGradient>

<linearGradient id="Gradient_12" gradientUnits="userSpaceOnUse" x1="481.21250000000003" y1="221.875" x2="519.8875" y2="245.425" spreadMethod="pad">
<stop  offset="0%" stop-color="#FFFFFF"/>

<stop  offset="100%" stop-color="#FFFFFF" stop-opacity="0"/>
</linearGradient>

<linearGradient id="Gradient_13" gradientUnits="userSpaceOnUse" x1="586.225" y1="195.41250000000002" x2="586.0749999999999" y2="177.6875" spreadMethod="pad">
<stop  offset="0%" stop-color="#FFFFFF"/>

<stop  offset="100%" stop-color="#FFFFFF" stop-opacity="0"/>
</linearGradient>

<linearGradient id="Gradient_14" gradientUnits="userSpaceOnUse" x1="77.3" y1="90.4" x2="61.8" y2="95.9" spreadMethod="pad">
<stop  offset="0%" stop-color="#FFFFFF"/>

<stop  offset="100%" stop-color="#FFFFFF" stop-opacity="0"/>
</linearGradient>

<linearGradient id="Gradient_15" gradientUnits="userSpaceOnUse" x1="92.1875" y1="11.2" x2="52.712500000000006" y2="28.2" spreadMethod="pad">
<stop  offset="0%" stop-color="#FFFFFF"/>

<stop  offset="100%" stop-color="#FFFFFF" stop-opacity="0"/>
</linearGradient>

<linearGradient id="Gradient_16" gradientUnits="userSpaceOnUse" x1="39.775" y1="125.9" x2="39.425000000000004" y2="198.9" spreadMethod="pad">
<stop  offset="0%" stop-color="#FFFFFF"/>

<stop  offset="100%" stop-color="#FFFFFF" stop-opacity="0"/>
</linearGradient>

<linearGradient id="Gradient_17" gradientUnits="userSpaceOnUse" x1="68.65" y1="66" x2="68.65" y2="9.5" spreadMethod="pad">
<stop  offset="0%" stop-color="#FFFFFF"/>

<stop  offset="100%" stop-color="#FFFFFF" stop-opacity="0"/>
</linearGradient>

<filter id="Filter_1" x="-20%" y="-20%" width="140%" height="140%" color-interpolation-filters="sRGB">
<feColorMatrix in="SourceGraphic" type="matrix" values="1 0 0 0 0 0 1 0 0 0 0 0 1 0 0 0 0 0 0.52 0" result="result1"/>
</filter>

<g id="Layer10_0_FILL">
<path fill="#FFFFFF" stroke="none" d="
M 801.5 334.05
Q 790.55 334.05 782.8 341.75 775.1 349.5 775.1 360.45 775.1 371.4 782.8 379.1 790.55 386.85 801.5 386.85 812.45 386.85 820.15 379.1 827.9 371.4 827.9 360.45 827.9 349.5 820.15 341.75 812.45 334.05 801.5 334.05 Z"/>
</g>

<g id="Layer9_0_FILL">
<path fill="#FFFFFF" stroke="none" d="
M 727.2 333.45
Q 726.7 333.45 726.2 333.55
L 726.15 333.6 715.75 335.35 715.7 335.35
Q 713.55 335.7 711.8 337.1 710.05 338.4 709.1 340.45
L 703.1 353.35 703.1 353.3
Q 701.75 356.15 702.5 359.2 703.25 362.25 705.7 364.2 708.15 366.1 711.25 366.1
L 714.2 366.1
Q 714.05 366.45 713.9 366.9 713.85 366.95 713.85 367.05 713.8 367.05 713.8 367.15
L 707.25 383
Q 701.2 380.15 693.3 380.15
L 693.25 380.15
Q 669.75 380.05 648.15 396.5 627.35 411.85 613.1 444.95
L 613.05 445.05 613.05 445.1
Q 608.8 454.85 607 463.85 604.35 468.5 600.7 471.4 598.05 473.3 595.7 474.3
L 613.3 431.05
Q 613.4 430.85 613.5 430.7 623.35 406.6 615 394.35 607.25 380.15 586.8 380.15 576.45 380.15 566.2 384.55 566 384.6 565.85 384.7 561.35 386.6 557.2 389.25 549.6 380.15 531 380.15 530.85 380.15 530.7 380.15 530.6 380.15 530.55 380.15
L 524.7 380.45
Q 524.05 380.5 523.35 380.65
L 523.3 380.65 512.9 382.85 512.85 382.85
Q 510.95 383.25 509.4 384.45 507 382.65 504 382.65
L 471.05 382.65
Q 468.9 382.65 467 383.6
L 467 383.65
Q 466.75 383.75 466.55 383.85 459.95 380.15 450.85 380.15 427.35 380 405.6 396.45
L 405.65 396.45
Q 395.05 404.25 386.25 416.55 384.55 407.2 380.95 398.8 380.9 398.8 380.9 398.75
L 380.8 398.55
Q 376.25 388.1 368.6 380.2
L 374.55 373.2
Q 374.65 373.1 374.75 373 374.85 372.8 375 372.6
L 375.05 372.55
Q 380.7 364.55 384.05 356 384.1 355.85 384.15 355.7 384.15 355.65 384.2 355.65 387.7 346.75 388.4 337.4 389.1 327.75 386.3 318 386.3 317.95 386.3 317.9 382.2 304.2 371.6 294.8 371.4 294.6 371.2 294.4 366.5 290.4 360.9 287.05 363.8 285.35 366.75 284
L 366.7 284
Q 375.05 280.25 384.25 280.25 387.95 280.25 390.6 277.65
L 390.65 277.6
Q 393.25 274.95 393.25 271.25
L 393.25 257.2
Q 393.25 253.5 390.65 250.85
L 390.6 250.85
Q 387.95 248.2 384.25 248.2 362.85 248.2 343.85 255.05
L 343.9 255.05
Q 326.75 261.1 311.1 271.55 299.45 270.15 287 270.3 272.85 270.45 258.5 272.45 258.3 272.45 258.15 272.5 257.95 272.5 257.8 272.55
L 257.95 272.55 230.6 277.95
Q 230.5 277.95 230.35 278 230.25 278 230.2 278.05
L 230.15 278.05
Q 216 281.6 203.1 286.95 202.9 287 202.7 287.15 178.95 297.2 162.75 310.25 162.5 310.4 162.3 310.6 145.8 324.1 136.7 338.6 136.6 338.75 136.5 338.9 126.95 354.35 125.65 369.45
L 125.65 369.5
Q 125.65 369.6 125.65 369.7 124.3 385.3 130.3 398 130.35 398.1 130.45 398.25 136.55 411.1 150.25 419.35
L 150.35 419.4 150.4 419.45
Q 163.35 427.45 182.95 428.75 185 428.9 186.95 428.1
L 183.65 433.35
Q 183.6 433.4 183.6 433.45 172.45 451.8 161.65 466.45 154.55 462.05 147.15 458.8 146.95 458.65 146.75 458.6 134.5 453.1 118.95 453.1 101.6 453.1 89.9 459.05 77.65 465.15 71.45 474.25 64.7 483.9 64.7 495.35 64.7 506.8 71.4 516.35 71.5 516.5 71.65 516.7 78 525.85 91.3 532
L 91.25 531.95
Q 103.45 537.75 122.3 537.75 137.25 537.75 150.5 533.55 160.1 530.5 169.4 525.65
L 178.15 535.4
Q 178.25 535.45 178.3 535.55 178.45 535.7 178.65 535.9 178.7 535.9 178.8 536
L 193.8 549.8
Q 193.9 549.9 194.05 550 194.15 550.1 194.25 550.2 202.9 557 212.75 562.2 212.8 562.25 212.9 562.3 223.1 567.5 234.6 569.65 234.8 569.7 235.05 569.75 258.3 573.8 278.95 569.75 279.1 569.7 279.25 569.7 299.95 565.4 317 555.45 334.15 545.4 347.5 530.75 360.1 516.95 368.9 501.05 372.4 506.85 377.9 510.9 378 510.95 378.1 511.05 386.5 517.25 399.85 517.25 409.9 517.3 420.65 512.3 420.7 512.25 420.8 512.25
L 420.85 512.25
Q 425.85 509.8 430.85 506.55 433.3 509.65 436.75 511.95 436.9 512.05 437.15 512.2 444.8 517.25 456.85 517.25 465.55 517.25 474.55 514.1 474.6 514.05 474.7 514.05 482.05 511.25 488.65 507 495.8 517.25 516.05 517.25 516.15 517.25 516.25 517.25 516.6 517.25 516.95 517.2
L 516.8 517.2 527.8 516.3
Q 528.35 516.25 528.9 516.15 528.95 516.15 529.05 516.15
L 534.2 515
Q 536.2 514.55 537.85 513.25
L 537.9 513.2
Q 539.5 511.85 540.35 510
L 543.95 502.3
Q 544.1 502.55 544.25 502.85 544.35 503.1 544.5 503.3 548.7 510.6 556.65 514.15
L 556.65 514.1
Q 563.3 517.25 572.75 517.25 581.5 517.25 590.35 514.05
L 590.4 514.05
Q 598.55 510.95 605.75 506.1
L 606.15 505.9
Q 606.2 505.85 606.3 505.8 609.05 503.8 611.65 501.6 615.05 507.05 620.3 510.9 620.4 510.95 620.5 511.05 628.9 517.25 642.25 517.25 652.2 517.3 663.05 512.55 663.1 512.5 663.15 512.5 663.2 512.45 663.25 512.45
L 663.3 512.4
Q 668.45 510.05 673.55 506.8 675.85 509.75 679.05 511.9 679.2 512.05 679.4 512.15 686.95 517.25 699.25 517.25 707.95 517.25 716.95 514.1 717 514.05 717.1 514.05 725.15 511 732.3 506.2 740.35 517.25 758.75 517.25 767.5 517.25 776.35 514.05
L 776.4 514.05
Q 784.7 510.9 792 506 792.05 505.9 792.15 505.9 796.1 511.2 802.6 514.1
L 802.65 514.15
Q 809.45 517.25 818.75 517.25 827.4 517.3 836.3 514.1 836.35 514.05 836.45 514.05 844.75 510.9 852.1 505.9 852.1 505.85 852.2 505.8 859.35 500.75 865.3 493.95 865.45 493.75 865.6 493.6 871.8 486.35 875.3 477.85 876.1 475.85 875.95 473.75
L 875.95 473.7
Q 875.75 471.6 874.65 469.75
L 874.7 469.8 869.7 461.45
Q 867.95 458.55 864.8 457.5
L 864.75 457.5
Q 861.55 456.45 858.45 457.8 855.35 459.1 853.9 462.1
L 853.85 462.1
Q 850.9 468.1 846.55 471.5 844.05 473.3 841.75 474.25
L 875.5 392.15 894.05 392.15
Q 896.5 392.15 898.65 390.9 900.75 389.65 901.95 387.5
L 910.3 372.25
Q 911.85 369.35 911.25 366.2 910.65 363.05 908.15 361 905.65 358.9 902.4 358.9
L 888.95 358.9 890.4 355.4
Q 891.65 352.25 890.6 349.1
L 890.6 349.05
Q 889.5 345.9 886.55 344.2
L 886.6 344.2
Q 883.65 342.5 880.35 343.15
L 844.3 350.05 844.35 350
Q 842.1 350.4 840.3 351.9 838.55 353.35 837.7 355.5
L 836.3 358.9 827.4 358.9
Q 825.35 358.9 823.55 359.8 823.2 359.95 822.85 360.15 820.7 361.4 819.55 363.55
L 819.55 363.6 811.2 378.85
Q 810.7 379.65 810.45 380.55 809.8 382.6 810.25 384.85 810.35 385.4 810.5 385.95 811.25 388.35 813.3 390.1 815.8 392.15 819.05 392.15
L 822.6 392.15 793.25 463.45 793.2 463.5
Q 790.4 468.5 786.55 471.5 786.45 471.55 786.35 471.65 783.9 473.4 781.65 474.35
L 799.2 431.25
Q 809.1 406.9 802.95 395.1 801.3 390.45 797.85 387.25 792.65 382.45 783.25 380.9 778.8 380.15 773.4 380.15 773.25 380.15 773.1 380.15 773 380.15 772.95 380.15
L 767.1 380.45
Q 766.45 380.5 765.75 380.65
L 765.7 380.65 760.3 381.8
Q 769.3 358.8 763.05 347.55 757.6 333.15 733.55 333.15 733.4 333.15 733.25 333.15 733.15 333.15 733.1 333.15
L 727.2 333.45
M 753.95 413.55
Q 754 413.55 754.05 413.55 754.15 413.55 754.25 413.55 754 413.95 753.8 414.4 753.7 414.45 753.7 414.6
L 732.85 465.05
Q 730.5 468.95 727.25 471.45 727.2 471.5 727.15 471.55 724.55 473.4 722.2 474.4
L 747.5 412.9
Q 749.05 413.55 750.85 413.55
L 753.95 413.55
M 683.3 420.85
Q 683.4 420.7 683.55 420.55 688.55 415.55 694.35 414.5
L 670.75 472.45 661.6 478.7
Q 658.35 480.25 655.45 480.35 655.15 479.15 655.2 477.5 655.5 473 657.4 467.05
L 664.05 451.05
Q 674.75 429.65 683.3 420.85
M 345.25 318.3
Q 351 322.85 353.2 329.5 353.2 329.55 353.25 329.65 354.15 333.3 353.5 337.4
L 349.95 348.45 343.65 358.5 339.2 363.3
Q 328.95 360.4 316.7 360.4 307.35 360.4 298.25 362.8
L 311.05 341.85
Q 321.85 324.9 333.15 311.6 340.2 314.2 345.2 318.25
L 345.25 318.3
M 220.7 337
Q 220.75 336.95 220.85 336.9 220.9 336.85 220.95 336.8 231.45 328.45 246.15 322.15 246.35 322.05 246.5 321.95 254.75 318.5 262.8 315.85 254.05 326.1 245.85 337.45 228.55 361.4 213.15 386 213.101171875 386 213.1 386.05
L 213.1 386 202 403.85
Q 201.55 402.75 200.85 401.8 198.95 399.3 196 398.55
L 196.05 398.55
Q 193.05 397.7 191.55 395.1 191.45 394.95 191.35 394.8 189.3 391.1 189.45 386.15
L 189.45 386.1
Q 189.45 386.05 189.45 386
L 189.45 385.95
Q 189.8 379.45 192.8 371.65 192.9 371.45 193 371.25 196.2 362.75 202.95 354.35
L 203.05 354.25
Q 203.1 354.15 203.15 354.1 210.1 345.1 220.7 337
M 297.1 425.55
Q 297.15 425.55 297.2 425.55 297.25 425.5 297.3 425.5 310.05 421.9 323.45 415.05 333.7 409.8 343.2 403.25 348.3 408.2 350.8 415.75
L 350.8 415.7
Q 354.65 427.65 352.9 441.65 352.85390625 441.7419921875 352.85 441.9
L 352.85 441.7
Q 351.1 456.15 343.55 471
L 343.55 471.05 343.5 471.15
Q 335.75 486.05 322.85 497.6 309.85 509.2 291.7 515.75 291.55 515.8 291.4 515.85 273.5 522.2 251.1 519.8 234.15 517.85 221.6 510.7 212.8 505.65 204.8 499.9 219.8 485.45 232.95 467.05 246.8 447.55 259.85 426.6 265.4 428.55 272.55 428.75 283.8 429.1 297.1 425.55
M 185.75 402.45
Q 204.15 411.4 222.5 407.7 204.15 411.4 185.75 402.45
M 96.15 494.05
Q 96.5 490.45 99.9 487.45 104.85 483.7 115.15 483.7 122.8 483.7 129.5 487.65
L 129.5 487.6
Q 133.6 490.05 137.65 493.25 132.8 497.3 127.85 500.15 127.7 500.2 127.6 500.3 120.5 504.3 113.25 504.4 104.65 504.4 99.95 500.65
L 99.9 500.6
Q 96.45 497.6 96.15 494.05
M 594.35 477.55
L 594.4 477.55 594.35 477.6 594.35 477.55
M 558.1 427.25
Q 560.65 424.95 563.45 423.75 563.65 423.65 563.85 423.6
L 545.85 466.7
Q 541.6 476.8 541 484.75 539.65 484.3 538.2 484.3
L 535.25 484.3
Q 535.15 484.3 535.05 484.3 535.2 483.7 535.5 483 535.5 482.9 535.55 482.85
L 558.1 427.25
M 511.75 413.55
Q 511.6 413.9 511.45 414.25 511.35 414.4 511.3 414.6
L 491.1 463.95 491.05 464
Q 488.55 468.45 484.95 471.3 484.85 471.35 484.8 471.4 484.75 471.4 484.7 471.45 482.15 473.25 479.85 474.25
L 505.1 412.8
Q 506.8 413.55 508.75 413.55
L 511.75 413.55
M 448.05 415.4
Q 449.7380859375 414.72578125 451.6 414.4
L 430.25 466.75
Q 430.15 466.95 430.05 467.25 430.05 467.2966796875 430 467.35
L 430.05 467.3 428.2 472.75
Q 424.1 476.15 420 478.3
L 419.95 478.35
Q 419.85 478.35 419.85 478.4 416 480.25 412.75 480.35 412.45 479.15 412.55 477.55 412.55 477.5 412.55 477.45 412.8 473.05 414.65 467.2
L 421.55 451.2 432 432.1
Q 436.35 425.25 440.65 420.9 444.4 417.2 448.05 415.4
M 360.45 493.15
L 362.3 493.15
Q 363.45 492.25 364.95 492.15 365 492.1 365.05 492.15 364.8 491.2 364.6 490.25
L 373.95 491.25
Q 373.5 492.2 373.05 493.15
L 375.95 493.15 373.05 493.15
Q 372.4 494.45 371.75 495.75 370.8 497.5 369.85 499.3 370.6 497.7 370.2 496.05 369.8 494.25 368.4 493.15
L 365.4 493.15
Q 365.45 493.45 365.55 493.75
L 365.6 493.85 365.6 493.9
Q 365.9 494.7 366.2 495.5 366.6 496.55 367.1 497.6
L 361.8 493.6
Q 362.05 493.35 362.3 493.15
L 360.45 493.15
M 365.05 492.15
Q 365.2 492.65 365.4 493.15
L 368.4 493.15
Q 368.35 493.1 368.3 493.1 368 492.85 367.65 492.7 366.45 492.05 365.05 492.15 Z"/>
</g>

<g id="Layer8_0_FILL">
<path fill="#000000" stroke="none" d="
M 788.75 372.9
Q 794.2 378.3 801.95 378.3 809.55 378.3 814.85 372.9 816.2 371.55 817.25 370.1 818 368.95 818.55 367.8 820.25 364.2 820.25 360 820.25 352.4 814.85 347.1 809.55 341.7 801.95 341.7 794.2 341.7 788.75 347.1 783.35 352.4 783.35 360 783.35 367.5 788.75 372.9
M 728.35 342.3
L 717.95 344.05 711.95 356.95 715.05 356.95
Q 721.65 356.95 723.55 360.75 725.45 364.4 722.8 370.4
L 711.65 397.5
Q 705.65 389 693.95 389 673.3 389 654.25 403.5 635.2 417.85 622 448.5 617.85 458 616.25 466.7 612.4 474.15 606.7 478.5 600.7 482.9 595.45 483.8 590.15 484.8 587.25 482.3 584.15 480 586.65 474.25
L 605.85 427.1
Q 613.6 408.2 607.9 398.7 602.15 389 587.5 389 578.75 389 570.1 392.8 561.45 396.5 554.25 403.2 552.05 389 531.7 389
L 525.85 389.3 515.45 391.5 509.45 404.4 512.5 404.4
Q 519.4 404.4 521.15 408.05 523.05 411.85 520.3 417.85
L 499.95 467.55
Q 496.3 474.4 490.8 478.5 484.65 482.9 479.5 483.8 474.4 484.8 471.45 482.3 468.4 480 470.75 474.25
L 504.7 391.5 471.75 391.5
Q 470.9 392.65 470.6 393.7
L 469.25 397.5
Q 463.25 389 451.55 389 430.9 389 411.7 403.5 397.3 414.25 386.45 434.2 382.8 440.85 379.6 448.5 378.4 451.3 377.4 454 379.35 443.85 379.4 434.2 379.4 432.4 379.35 430.6 378.95 415.1 373.35 402.2 367.8 389.3 356.65 380.95
L 368.4 367.2
Q 373.5 360 376.45 352.25 379.5 344.6 380.1 336.55 380.7 328.5 378.35 320.3 374.95 308.9 366.05 301.1 356.95 293.35 344.05 288.25 353.75 280.15 363.7 275.65 373.8 271.1 384.95 271.1
L 384.95 257.05
Q 365.15 257.05 347.6 263.35 330 269.6 314.05 280.75 301.45 279 287.8 279.15 274.2 279.3 260.4 281.2
L 233.05 286.6
Q 219.55 290 207.25 295.1 184.25 304.8 168.7 317.4 153.35 330 144.85 343.45 136.5 356.95 135.3 370.1 134.15 383.3 139.15 394 144.25 404.7 155.7 411.55 167.1 418.45 201.8 422.2 207.55 423.15 215.05 420.25 222.9 416.05 222.15 413.2 221.4 410.3 218.65 409.85 215.85 409.4 210.05 408.95 187.75 405.25 184.4 399.4 180.9 393.55 181.15 385.65 181.45 377.6 185.25 367.9 188.95 358.1 196.7 348.45 204.3 338.6 215.9 329.7 227.3 320.6 243.3 313.7 267.9 303.3 290.75 299.95 270.95 318.85 253.85 342.55 236.7 366.3 221.45 390.6
L 213.6 403.2 237.55 406.5
Q 228.55 432.6 196.95 430.05
L 192 437.95
Q 177.95 461.1 151.75 492.85 142.5 502.4 133 507.8 123.6 513.25 113.95 513.25 101.35 513.25 94.6 507.2 87.85 501.2 87.85 493.9 87.85 486.55 94.6 480.55 101.35 474.55 115.85 474.55 125.95 474.55 134.75 479.7 139.45 482.45 144.05 486.1 149.1 482.2 154.65 473.5 149.95 469.35 143.8 466.65 133.15 461.95 119.65 461.95 104.7 461.95 94.6 466.95 84.65 471.9 79.5 479.25 74.4 486.55 74.4 495.2 74.4 504 79.65 511.3 84.95 518.65 95.75 523.65 106.45 528.6 123 528.6 136.5 528.6 148.5 524.8 160.5 521 171.95 514.1
L 185.55 529.2 200.5 542.95
Q 208.55 549.25 217.65 554.1 226.9 558.8 237.3 560.7 258.95 564.5 278.15 560.7 297.35 556.75 313.15 547.5 329.1 538.15 341.55 524.5 354 510.9 362.5 495.05 369.3 482.75 373.4 469.85 373.25 470.8 373.15 471.75 372.15 482.6 374.8 490.8 377.55 498.85 384 503.55 390.45 508.1 400.55 508.1 408.75 508.1 417.55 504 426.35 499.75 435.15 492.55 436.6 500.35 442.45 504.3 448.3 508.1 457.55 508.1 464.75 508.1 472.2 505.45 479.5 502.7 485.95 498.3 490.05 495.4 493.75 491.85 493.85 495.85 495.25 498.85 499.65 508.1 516.75 508.1
L 527.75 507.2 532.9 506.05 538.9 493.15 535.95 493.15
Q 529.05 493.15 527.15 489.5 525.4 486 527.75 479.7
L 551.2 421.8
Q 555.75 417.3 560.7 415.25 565.55 413.35 569.2 413.45 572.85 413.6 574.5 416.25 576.1 418.75 574.35 423.3
L 554.85 470
Q 550.9 479.4 550.6 486.55 550.3 493.75 552.95 498.6 555.75 503.4 561 505.75 566.15 508.1 573.45 508.1 580.65 508.1 587.95 505.45 595.3 502.7 601.75 498.3 608.15 493.75 613.45 487.6 614.7 486.15 615.8 484.7 616.25 487.9 617.2 490.8 619.95 498.85 626.4 503.55 632.85 508.1 642.95 508.1 651.15 508.1 660.1 504.15 669.05 500.05 677.85 492.85 679.3 500.65 685 504.45 690.7 508.1 699.95 508.1 707.15 508.1 714.6 505.45 721.9 502.7 728.35 498.3 732.8 495.15 736.7 491.3 737.1 495.45 738.95 498.6 744.65 508.1 759.45 508.1 766.65 508.1 773.95 505.45 781.3 502.7 787.75 498.3 792.55 494.9 796.7 490.65 797.1 495.2 798.95 498.6 801.7 503.4 807 505.75 812.25 508.1 819.45 508.1 826.6 508.1 833.95 505.45 841.25 502.7 847.7 498.3 854.15 493.75 859.45 487.6 864.7 481.45 867.65 474.25
L 862.65 465.9
Q 858.7 473.95 852.7 478.5 846.7 482.9 841.4 483.8 836.15 484.8 833.2 482.3 830.15 480 832.65 474.25
L 870.15 383 894.75 383 903.1 367.75 876.15 367.75 882.75 351.8 846.7 358.7 843.05 367.75 828.1 367.75 819.75 383 836.75 383 802.1 467.05
Q 798.25 474.3 792.7 478.5 786.7 482.9 781.45 483.95 776.15 485.1 773.25 482.6 770.15 480.25 772.65 474.25
L 791.55 427.7
Q 799.6 407.9 795.35 398.55 791.25 389 774.1 389
L 768.25 389.3 757.85 391.5 751.55 404.4 754.65 404.4
Q 761.5 404.4 763.25 408.05 765.15 411.85 762.7 417.85
L 741.65 468.8
Q 738.25 474.8 733.35 478.5 727.35 482.9 722.05 483.95 716.8 485.1 714 482.6 711.1 480.25 713.15 474.25
L 751.65 380.65
Q 760 360.6 755.6 351.2 751.35 342 734.25 342
L 728.35 342.3
M 697.9 405
Q 703.6 405 706.85 409.1
L 678.7 478.2 667 486.25
Q 661.3 489.2 656.15 489.2 651 489.2 648.85 486 646.65 482.6 646.9 476.9 647.2 471.2 649.7 463.55
L 656.45 447.3
Q 668.15 423.85 677.55 414.35 686.75 405 697.9 405
M 330.9 301.1
Q 343.5 304.5 351.55 311.1 359.75 317.65 362.65 327.2 364.15 332.9 362.95 339.35
L 358.85 352.1 351.4 363.95 342.6 373.5
Q 331.45 369.25 317.4 369.25 306.85 369.25 296.4 371.6 284.35 374.2 277.55 380.35
L 304.05 337
Q 317.1 316.5 330.9 301.1
M 295.45 416.7
Q 307.45 413.35 320.05 406.9 332.65 400.45 344.05 391.8 355.5 398.95 360.05 412.75 364.55 426.5 362.5 442.6 360.6 458.6 352.25 475 343.75 491.4 329.55 504.15 315.35 516.9 295.45 524.05 275.65 531.25 250.75 528.6 231.85 526.4 217.8 518.35 203.75 510.3 191.45 500.35 210.3 484.1 226.3 461.65 242.4 439.1 257.35 414.5 263.35 419.35 273.45 419.6 283.55 419.9 295.45 416.7
M 455.5 405
Q 461.5 405 464.15 409.1
L 439.25 470 436.6 477.8
Q 430.6 483.2 424.6 486.25 418.6 489.2 413.45 489.2 408.35 489.2 406.15 486 403.95 482.6 404.25 476.9 404.5 471.2 407 463.55
L 414.05 447.3 424.9 427.4
Q 430 419.35 435 414.35 439.95 409.5 444.8 407.15 449.8 405 455.5 405 Z"/>

<path fill="#FFFFFF" stroke="none" d="
M 154.65 473.5
Q 149.1 482.2 144.05 486.1 147.95 489.15 151.75 492.85 152.9 483.7 154.65 473.5
M 213.6 403.2
L 210.05 408.95
Q 215.85 409.4 218.65 409.85 221.4 410.3 222.15 413.2 222.9 416.05 215.05 420.25 207.55 423.15 201.8 422.2
L 196.95 430.05
Q 228.55 432.6 237.55 406.5
L 213.6 403.2
M 218.2 422.5
Q 227.35 415.3 235.6 408.2 225.15 417.55 218.2 422.5 Z"/>
</g>

<g id="Layer6_0_FILL">
<path fill="url(#Gradient_1)" stroke="none" d="
M 643.6 243.25
L 621.2 243.25 615.8 271.05 616.4 270.4 643.6 243.25 Z"/>

<path fill="#FFFFFF" stroke="none" d="
M 622.05 238.8
L 622.65 238.2 626.8 216.75 599.8 216.75 578.8 325.4 605.8 325.4 616.4 270.4 615.8 271.05 621.2 243.25 622.05 238.8
M 472.45 217.55
L 471.85 217.55 475.5 198.65 475.4 198.65 475.4 198.7 449.05 198.7 439.2 249.8 465.7 249.8 469.25 230.4 469.95 230.4 472.45 217.55
M 592.7 197.95
L 570.35 197.95 559.35 254.85 555.75 274.35 582.6 274.35 597.35 197.95 597.3 198.05 592.8 198.05 592.7 197.95 Z"/>

<path fill="url(#Gradient_2)" stroke="none" d="
M 724.2 243.25
L 727.8 220.45 640.75 220.45 622.65 238.2 622.05 238.8 621.2 243.25 643.6 243.25 724.2 243.25 Z"/>

<path fill="url(#Gradient_3)" stroke="none" d="
M 605.8 325.4
L 578.8 325.4 568.2 380.35 595.2 380.35 605.8 325.4 Z"/>

<path fill="url(#Gradient_4)" stroke="none" d="
M 479.05 275.25
L 479.5 274.75 510.45 274.75 509.95 275.25 555.4 275.25 555.6 275.25 555.75 274.35 559.35 254.85 528.8 254.85 497.85 254.85 479 275.25 479.05 275.25 Z"/>

<path fill="url(#Gradient_5)" stroke="none" d="
M 479.5 274.75
L 479.05 275.25 457.1 299 454.85 311.15 476.8 311.15 509.95 275.25 510.45 274.75 479.5 274.75 Z"/>

<path fill="url(#Gradient_6)" stroke="none" d="
M 555.6 275.25
L 555.4 275.25 545.8 325.05 572.8 325.05 582.6 274.35 555.75 274.35 555.6 275.25 Z"/>

<path fill="url(#Gradient_7)" stroke="none" d="
M 466.15 250.05
L 465.7 250.05 465.7 249.8 439.2 249.8 424.65 325.05 451.65 325.05 466.15 250.05 Z"/>

<path fill="url(#Gradient_8)" stroke="none" d="
M 469.95 230.4
L 469.25 230.4 465.7 249.8 465.7 250.05 466.15 250.05 501.8 250.05 519.9 230.4 469.95 230.4 Z"/>

<path fill="url(#Gradient_9)" stroke="none" d="
M 471.85 217.55
L 472.45 217.55 532.25 217.55 563.25 217.55 566 217.55 569.8 197.9 476.15 197.9 476 198.65 475.5 198.65 471.85 217.55 Z"/>

<path fill="url(#Gradient_10)" stroke="none" d="
M 476.15 197.9
L 480.7 174.15 453.7 174.15 448.95 198.7 449.05 198.7 475.4 198.7 475.4 198.65 475.5 198.65 476 198.65 476.15 197.9 Z"/>

<path fill="url(#Gradient_11)" stroke="none" d="
M 563.25 217.55
L 532.25 217.55 497.85 254.85 528.8 254.85 533.3 250.05 551.4 230.4 563.25 217.55 Z"/>

<path fill="url(#Gradient_12)" stroke="none" d="
M 556.3 230.4
L 551.4 230.4 533.3 250.05 553.35 250.05 556.3 230.4 Z"/>

<path fill="url(#Gradient_13)" stroke="none" d="
M 572.65 185.75
L 592.7 197.95 592.8 198.05 597.3 198.05 597.35 197.95 602.05 173.5 575 173.5 572.65 185.75 Z"/>
</g>

<g id="_______2_0_Layer0_0_FILL">
<path fill="url(#Gradient_14)" stroke="none" d="
M 86.55 123.45
L 86.55 122.9 95.5 76.95 13 76.95 0 123.45 86.55 123.45 Z"/>

<path fill="url(#Gradient_15)" stroke="none" d="
M 101.3 46.55
L 110.3 0 27 0 12.5 46.55 101.3 46.55 Z"/>
</g>

<g id="_______3_0_Layer0_0_FILL">
<path fill="url(#Gradient_16)" stroke="none" d="
M 79.15 119.25
L 23.5 119.25 0 219.45 60.35 219.55 79.15 119.25 Z"/>

<path fill="url(#Gradient_17)" stroke="none" d="
M 88.2 70.9
L 101.45 0 35.9 70.9 88.2 70.9 Z"/>
</g>

<g id="Layer5_0_FILL">
<path fill="#FFFFFF" stroke="none" d="
M 592.55 83.05
Q 581.05 83.05 571.5 90.65 561.9 98.2 556.25 112.75 554.4732421875 117.302734375 554.1 121.5 552.2 125.5 549.2 127.8 546.2 130 543.65 130.4 541.1 130.95 539.6 129.7 538.05 128.5 539.15 125.65
L 548.9 102.05
Q 552.65 92.75 549.8 87.95 546.95 83.05 539.75 83.05 536.45 83.05 533.1 84.2 529.75 85.3 526.7 87.3
L 530.75 77.55
Q 534.95 67.3 532.8 62.65 530.6 58 522.05 58
L 519.05 58.15 514 59.1 510.85 65.5 512.3 65.5
Q 515.75 65.5 516.6 67.35 517.55 69.25 516.2 72.25
L 516.15 72.4 503.15 72.4 506.45 64.45 488.45 67.85 486.6 72.4 479.15 72.4 474.95 80.05 483.45 80.05 465.5 123.55
Q 463.55 128.2 463.4 131.8 463.25 135.4 464.55 137.8 465.95 140.25 468.6 141.4 471.25 142.6 474.8 142.6 478.4 142.6 482.05 141.25 485.75 139.85 488.95 137.65 491.013671875 136.2212890625 492.8 134.45 492.86796875 136.4591796875 493.55 137.95 495.65 142.6 504.15 142.6
L 509.75 142.15 512.3 141.55 515.45 135.1 514 135.1
Q 510.55 135.1 509.6 133.25 508.7 131.5 509.9 128.35
L 521.9 99.05
Q 524.15 97 526.5 96 528.75 95.05 530.6 95.2 532.45 95.35 533.25 96.65 534.05 97.9 533.15 100.15
L 523.45 123.55
Q 521.45 128.2 521.3 131.8 521.15 135.4 522.4 137.8 523.7 140.25 526.35 141.4 528.9 142.6 532.6 142.6 536.15 142.6 539.85 141.25 543.5 139.85 546.7 137.65 549.95 135.4 552.6 132.3 553.7599609375 130.9392578125 554.7 129.45 555.3390625 131.88125 556.55 133.95 559 137.95 563.4 140.3 567.75 142.6 574.05 142.6 586.25 142.6 595.4 138.1 604.55 133.55 608.3 125.65
L 605.8 121.5 601.55 126.3 595.9 130.35 589.45 133.15
Q 586.1 134.25 582.95 134.25 575.9 134.25 572.55 129.75 569.15 125.35 571.05 118.65
L 580.65 118.65
Q 589.55 118.65 596.25 113.05 601.1 109.05 603.45 103.85 605.7 98.65 605.35 94.1 605 89.45 601.85 86.25 598.7 83.05 592.55 83.05
M 512.45 80.05
L 514.7 75.95 495.7 122.8
Q 493.9341796875 125.8955078125 491.45 127.8 488.45 130 485.8 130.4 483.15 130.95 481.7 129.7 480.15 128.5 481.4 125.65
L 500.15 80.05 512.45 80.05
M 588.8 89.75
Q 591.05 88.9 591.95 89.85 592.8 90.85 592.7 92.9
L 591.5 98.05 588.65 104.35
Q 586.5 108.75 584.2 110.8 581.75 112.9 578.3 112.9
L 573.05 112.9 576.85 104.8 581.2 97.75 585.3 92.5 588.8 89.75
M 432 108.05
L 432 103.05 197 103.05 197 108.05 432 108.05
M 754.2 668.25
L 754.2 663.25 457.2 663.25 457.2 668.25 754.2 668.25
M 871.9 108.05
L 871.9 103.05 636.9 103.05 636.9 108.05 871.9 108.05 Z"/>
</g>

<g id="Layer3_0_FILL">
<path fill="#FFFFFF" stroke="none" d="
M 442.55 642.9
Q 441.85 642.2 440.85 642.2 439.85 642.2 439.15 642.9 438.45 643.6 438.45 644.6 438.45 645.05 438.6 645.4 438.75 645.9 439.15 646.3 439.85 647 440.85 647 441.85 647 442.55 646.3 443.25 645.6 443.25 644.6 443.25 644.2 443.15 643.85 442.95 643.3 442.55 642.9
M 439.15 616.4
Q 439.75 615.85 439.75 615 439.75 614.15 439.15 613.55 438.6 613 437.75 613 436.9 613 436.3 613.55 435.75 614.15 435.75 615 435.75 615.85 436.3 616.4 436.9 617 437.75 617 438.6 617 439.15 616.4
M 444.2 614.05
Q 444.05 613.95 443.85 613.95 443.5 613.95 443.25 614.2 443 614.45 443 614.8 443 615.15 443.25 615.4 443.5 615.65 443.85 615.65 444.05 615.65 444.2 615.6 444.35 615.5 444.45 615.4 444.7 615.15 444.7 614.8
L 443.9 614.8 444.7 614.8
Q 444.7 614.45 444.45 614.2 444.35 614.1 444.2 614.05
M 449.75 614
L 449.7 614
Q 449.35 614 449.1 614.25 448.85 614.5 448.85 614.8
L 449.8 614.8 448.85 614.8 448.85 614.85
Q 448.85 615.2 449.1 615.45 449.35 615.7 449.7 615.7
L 449.75 615.7
Q 450.05 615.7 450.3 615.45 450.55 615.2 450.55 614.85 450.55 614.5 450.3 614.25 450.05 614 449.75 614
M 370.1 656.75
Q 370.1 655.65 369.35 654.9 368.6 654.15 367.5 654.15 366.4 654.15 365.65 654.9 364.9 655.65 364.9 656.75 364.9 657.85 365.65 658.6 366.4 659.35 367.5 659.35 368.6 659.35 369.35 658.6 370.1 657.85 370.1 656.75 Z"/>
</g>

<g id="Layer1_0_FILL">
<path fill="#FFFFFF" stroke="none" d="
M 744.7 687.8
L 742.15 687.8 742.15 718 744.9 718 744.9 697.75 751.4 718 753.85 718 753.85 687.8 751.1 687.8 751.1 708.45 744.7 687.8
M 742.45 688.05
L 744.45 688.05 751.4 710 751.4 688.05 753.65 688.05 753.65 717.75 751.55 717.75 744.7 696.3 744.7 717.75 742.45 717.75 742.45 688.05
M 744.15 688.55
L 742.9 688.55 742.9 717.25 744.2 717.25 744.2 695.15 743.9 691.4 743.95 691.4 751.9 717.25 753.15 717.25 753.15 688.55 751.85 688.55 751.85 710.55 752.2 714.65 752.15 714.65 744.15 688.55
M 738.15 687.8
L 735.4 687.8 735.4 718 738.15 718 738.15 687.8
M 735.7 688.05
L 737.9 688.05 737.9 717.75 735.7 717.75 735.7 688.05
M 737.45 688.55
L 736.1 688.55 736.1 717.25 737.45 717.25 737.45 688.55
M 728.2 687.8
L 725.3 687.8 720.95 718 723.7 718 724.85 710.15 728.75 710.15 729.75 718 732.6 718 728.2 687.8
M 725.45 688
L 728.05 688 732.3 717.75 729.95 717.75 728.9 709.95 724.65 709.95 723.5 717.75 721.25 717.75 725.45 688
M 727.6 688.55
L 725.9 688.55 721.85 717.25 723.1 717.25 724.25 709.45 729.35 709.45 730.4 717.25 731.75 717.25 727.6 688.55
M 729.2 708.25
L 724.3 708.25 726.75 691.05 729.2 708.25
M 724.9 707.75
L 728.6 707.75 726.75 694.45 724.9 707.75
M 728.3 707.55
L 725.15 707.55 726.75 696.25 728.3 707.55
M 718.1 687.8
L 715.45 687.8 715.45 707.6 709.7 707.6 709.7 687.8 706.95 687.8 706.95 718 709.7 718 709.7 710.5 715.45 710.5 715.45 718 718.1 718 718.1 687.8
M 715.65 688.05
L 717.9 688.05 717.9 717.75 715.65 717.75 715.65 710.25 709.45 710.25 709.45 717.75 707.25 717.75 707.25 688.05 709.45 688.05 709.45 707.85 715.65 707.85 715.65 688.05
M 717.45 688.55
L 716.15 688.55 716.15 708.4 709 708.4 709 688.55 707.65 688.55 707.65 717.25 709 717.25 709 709.75 716.15 709.75 716.15 717.25 717.45 717.25 717.45 688.55
M 697.8 687.65
Q 695.3 687.65 693.7 689.6 692.15 691.45 692.15 694.25
L 692.15 711.6
Q 692.15 714.5 693.7 716.35 695.3 718.25 697.9 718.25 700.55 718.25 702.05 716.2 703.4 714.35 703.4 711.65
L 703.4 708.75 700.7 708.75 700.7 711.65
Q 700.7 715.35 697.9 715.35 696.5 715.35 695.65 714.2 694.95 713.1 694.95 711.6
L 694.95 694.25
Q 694.95 692.55 695.75 691.45 696.55 690.45 697.9 690.45 699.25 690.45 700.05 691.65 700.75 692.7 700.75 694.25
L 700.75 697.4 703.35 697.4 703.35 694.25
Q 703.35 691.35 701.85 689.5 700.3 687.65 697.8 687.65
M 697.9 690.25
Q 696.5 690.25 695.6 691.35 694.7 692.45 694.7 694.25
L 694.7 711.6
Q 694.7 713.25 695.5 714.35 696.4 715.55 697.9 715.55 700.9 715.55 700.9 711.65
L 700.9 709 703.2 709 703.2 711.65
Q 703.2 714.25 701.9 716.05 700.45 718.05 697.9 718.05 695.35 718.05 693.9 716.2 692.45 714.4 692.45 711.6
L 692.45 694.25
Q 692.45 691.55 693.9 689.75 695.4 687.85 697.8 687.85 700.2 687.85 701.7 689.7 703.15 691.5 703.15 694.25
L 703.15 697.15 701 697.15 701 694.25
Q 701 692.6 700.2 691.45 699.35 690.25 697.9 690.25
M 697.8 688.4
Q 695.6 688.4 694.25 690.1 692.9 691.75 692.9 694.25
L 692.9 711.6
Q 692.9 714.2 694.2 715.8 695.55 717.55 697.9 717.55 700.2 717.55 701.55 715.7 702.7 714.05 702.7 711.65
L 702.7 709.45 701.4 709.45 701.4 711.65
Q 701.4 716.1 697.9 716.1 696.2 716.1 695.15 714.75 694.25 713.45 694.25 711.6
L 694.25 694.25
Q 694.25 692.2 695.3 690.95 696.3 689.75 697.9 689.75 699.6 689.75 700.6 691.15 701.45 692.35 701.45 694.25
L 701.45 696.65 702.65 696.65 702.65 694.25
Q 702.65 691.7 701.3 690.1 700 688.4 697.8 688.4
M 681 687.8
L 678.25 687.8 678.25 718 681 718 681 710.85 681.55 709.65 687.6 718 691.05 718 682.85 706.7 690.6 687.8 687.65 687.8 681 704.15 681 687.8
M 678.5 688.05
L 680.75 688.05 680.75 705.35 687.85 688.05 690.25 688.05 682.55 706.75 690.5 717.75 687.7 717.75 681.5 709.2 680.75 710.8 680.75 717.75 678.5 717.75 678.5 688.05
M 680.3 688.55
L 678.95 688.55 678.95 717.25 680.3 717.25 680.3 710.65 681.45 708.2 687.9 717.25 689.5 717.25 682.05 706.8 689.5 688.55 688.15 688.55 680.3 707.7 680.3 688.55
M 673.15 689.5
Q 671.6 687.65 669.1 687.65 666.6 687.65 665 689.6 663.45 691.45 663.45 694.25
L 663.45 711.6
Q 663.45 714.5 665 716.35 666.6 718.25 669.2 718.25 671.85 718.25 673.35 716.2 674.7 714.35 674.7 711.65
L 674.7 708.75 672 708.75 672 711.65
Q 672 715.35 669.2 715.35 667.8 715.35 666.95 714.2 666.25 713.1 666.25 711.6
L 666.25 694.25
Q 666.25 692.55 667.05 691.45 667.85 690.45 669.2 690.45 670.55 690.45 671.35 691.65 672.05 692.7 672.05 694.25
L 672.05 697.4 674.65 697.4 674.65 694.25
Q 674.65 691.35 673.15 689.5
M 669.1 687.85
Q 671.5 687.85 673 689.7 674.45 691.5 674.45 694.25
L 674.45 697.15 672.3 697.15 672.3 694.25
Q 672.3 692.6 671.5 691.45 670.65 690.25 669.2 690.25 667.8 690.25 666.9 691.35 666 692.45 666 694.25
L 666 711.6
Q 666 713.25 666.8 714.35 667.7 715.55 669.2 715.55 672.2 715.55 672.2 711.65
L 672.2 709 674.5 709 674.5 711.65
Q 674.5 714.25 673.2 716.05 671.75 718.05 669.2 718.05 666.65 718.05 665.2 716.2 663.75 714.4 663.75 711.6
L 663.75 694.25
Q 663.75 691.55 665.2 689.75 666.7 687.85 669.1 687.85
M 669.2 689.75
Q 670.9 689.75 671.9 691.15 672.75 692.35 672.75 694.25
L 672.75 696.65 673.95 696.65 673.95 694.25
Q 673.95 691.7 672.6 690.1 671.3 688.4 669.1 688.4 666.9 688.4 665.55 690.1 664.2 691.75 664.2 694.25
L 664.2 711.6
Q 664.2 714.2 665.5 715.8 666.85 717.55 669.2 717.55 671.5 717.55 672.85 715.7 674 714.05 674 711.65
L 674 709.45 672.7 709.45 672.7 711.65
Q 672.7 716.1 669.2 716.1 667.5 716.1 666.45 714.75 665.55 713.45 665.55 711.6
L 665.55 694.25
Q 665.55 692.2 666.6 690.95 667.6 689.75 669.2 689.75
M 654.65 687.55
Q 652 687.55 650.4 689.5 648.95 691.3 648.95 694.05
L 648.95 711.7
Q 648.95 714.55 650.45 716.4 652.05 718.3 654.65 718.3 657.25 718.3 658.8 716.3 660.15 714.45 660.15 711.65
L 660.15 694.05
Q 660.15 691.3 658.7 689.45 657.15 687.55 654.65 687.55
M 650.6 689.7
Q 652.1 687.75 654.65 687.75 657.05 687.75 658.5 689.65 659.95 691.4 659.95 694.05
L 659.95 711.65
Q 659.95 714.35 658.6 716.1 657.15 718.05 654.65 718.05 652.15 718.05 650.65 716.25 649.25 714.5 649.25 711.7
L 649.25 694.05
Q 649.25 691.4 650.6 689.7
M 654.65 688.3
Q 652.3 688.3 650.95 690 649.7 691.65 649.7 694.05
L 649.7 711.7
Q 649.7 714.25 650.95 715.85 652.35 717.55 654.65 717.55 656.9 717.55 658.25 715.75 659.45 714.1 659.45 711.65
L 659.45 694.05
Q 659.45 691.6 658.15 690 656.85 688.3 654.65 688.3
M 651.9 690.95
Q 652.9 689.65 654.65 689.65 656.35 689.65 657.3 691.05 658.15 692.25 658.15 694.05
L 658.15 711.65
Q 658.15 716.1 654.65 716.1 652.9 716.1 651.9 714.8 651.05 713.6 651.05 711.7
L 651.05 694.05
Q 651.05 692.15 651.9 690.95
M 656.95 691.35
Q 656.1 690.15 654.65 690.15 651.45 690.15 651.45 694.05
L 651.45 711.7
Q 651.45 713.35 652.25 714.4 653.15 715.55 654.65 715.55 657.65 715.55 657.65 711.65
L 657.65 694.05
Q 657.65 692.45 656.95 691.35
M 654.65 690.4
Q 656 690.4 656.8 691.55 657.45 692.55 657.45 694.05
L 657.45 711.65
Q 657.45 715.35 654.65 715.35 651.75 715.35 651.75 711.7
L 651.75 694.05
Q 651.75 690.4 654.65 690.4
M 640.75 687.8
L 638.15 687.8 638.15 718 646.4 718 646.4 715.15 640.75 715.15 640.75 687.8
M 638.35 688.05
L 640.5 688.05 640.5 715.4 646.1 715.4 646.1 717.75 638.35 717.75 638.35 688.05
M 640.1 688.55
L 638.8 688.55 638.8 717.25 645.7 717.25 645.7 715.9 640.1 715.9 640.1 688.55
M 632.9 689.35
Q 631.4 687.8 628.9 687.8
L 623.8 687.8 623.8 718 630.25 718
Q 631.95 718 633.1 716.8 634.5 715.45 634.5 713
L 634.5 710.9
Q 634.5 708.15 632.65 706.95 634.5 705.2 634.5 702.45
L 634.55 694.1
Q 634.55 690.95 632.9 689.35
M 628.9 688.05
Q 631.35 688.05 632.75 689.5 634.35 691.1 634.35 694.1
L 634.3 702.45
Q 634.3 705.15 632.3 707 634.3 708.05 634.3 710.9
L 634.3 713
Q 634.3 715.35 633 716.65 631.9 717.75 630.25 717.75
L 624 717.75 624 688.05 628.9 688.05
M 632.4 689.9
Q 631.1 688.55 628.9 688.55
L 624.5 688.55 624.5 717.25 630.25 717.25
Q 631.7 717.25 632.65 716.25 633.8 715.05 633.8 713
L 633.8 710.9
Q 633.8 709.4 633.1 708.35 632.35 707.25 631.1 707.15 633.8 705.95 633.8 702.45
L 633.85 694.1
Q 633.85 691.35 632.4 689.9
M 625.8 689.95
L 628.9 689.95
Q 632.6 689.95 632.6 694.1
L 632.6 702.4
Q 632.6 704.3 631.35 705.6 630.25 706.7 629 706.7
L 625.8 706.7 625.8 689.95
M 629.75 708.1
Q 630.95 708.1 631.7 708.8 632.6 709.6 632.6 710.9
L 632.6 713
Q 632.6 715.85 630.25 715.85
L 625.8 715.85 625.8 708.1 629.75 708.1
M 632.1 710.9
Q 632.1 708.6 629.75 708.6
L 626.3 708.6 626.3 715.35 630.25 715.35
Q 632.1 715.35 632.1 713
L 632.1 710.9
M 629.75 708.9
Q 631.9 708.9 631.9 710.9
L 631.9 713
Q 631.9 715.05 630.25 715.05
L 626.55 715.05 626.55 708.9 629.75 708.9
M 628.9 690.45
L 626.3 690.45 626.3 706.25 629 706.25
Q 630.1 706.25 631.05 705.2 632.1 704.1 632.1 702.4
L 632.1 694.1
Q 632.1 690.45 628.9 690.45
M 626.55 690.75
L 628.9 690.75
Q 631.9 690.75 631.9 694.1
L 631.9 702.4
Q 631.9 703.95 630.9 705.05 630.05 705.95 629 705.95
L 626.55 705.95 626.55 690.75
M 602.7 687.75
L 599.75 687.75 605.1 710.4 605.1 718 608 718 608 710.4 613.4 687.75 610.4 687.75 606.55 704.3 602.7 687.75
M 600.1 688
L 602.45 688 606.55 705.55 610.65 688 613 688 607.7 710.25 607.7 717.75 605.35 717.75 605.35 710.25 600.1 688
M 602.05 688.5
L 600.75 688.5 605.8 710.15 605.8 717.25 607.25 717.25 607.25 710.15 612.4 688.5 611 688.5 606.55 707.9 602.05 688.5
M 596.05 689.35
Q 594.55 687.8 592.05 687.8
L 586.95 687.8 586.95 718 593.4 718
Q 595.1 718 596.25 716.8 597.65 715.45 597.65 713
L 597.65 710.9
Q 597.65 708.15 595.8 706.95 597.65 705.2 597.65 702.45
L 597.7 694.1
Q 597.7 690.95 596.05 689.35
M 592.05 688.05
Q 594.5 688.05 595.9 689.5 597.5 691.1 597.5 694.1
L 597.45 702.45
Q 597.45 705.15 595.45 707 597.45 708.05 597.45 710.9
L 597.45 713
Q 597.45 715.35 596.15 716.65 595.05 717.75 593.4 717.75
L 587.15 717.75 587.15 688.05 592.05 688.05
M 592.05 688.55
L 587.65 688.55 587.65 717.25 593.4 717.25
Q 594.85 717.25 595.8 716.25 596.95 715.05 596.95 713
L 596.95 710.9
Q 596.95 709.4 596.25 708.35 595.5 707.25 594.25 707.15 596.95 705.95 596.95 702.45
L 597 694.1
Q 597 691.35 595.55 689.9 594.25 688.55 592.05 688.55
M 588.95 689.95
L 592.05 689.95
Q 595.75 689.95 595.75 694.1
L 595.75 702.4
Q 595.75 704.3 594.5 705.6 593.4 706.7 592.15 706.7
L 588.95 706.7 588.95 689.95
M 594.85 708.8
Q 595.75 709.6 595.75 710.9
L 595.75 713
Q 595.75 715.85 593.4 715.85
L 588.95 715.85 588.95 708.1 592.9 708.1
Q 594.1 708.1 594.85 708.8
M 595.25 710.9
Q 595.25 708.6 592.9 708.6
L 589.45 708.6 589.45 715.35 593.4 715.35
Q 595.25 715.35 595.25 713
L 595.25 710.9
M 592.9 708.9
Q 595.05 708.9 595.05 710.9
L 595.05 713
Q 595.05 715.05 593.4 715.05
L 589.7 715.05 589.7 708.9 592.9 708.9
M 592.05 690.45
L 589.45 690.45 589.45 706.25 592.15 706.25
Q 593.25 706.25 594.2 705.2 595.25 704.1 595.25 702.4
L 595.25 694.1
Q 595.25 690.45 592.05 690.45
M 589.7 690.75
L 592.05 690.75
Q 595.05 690.75 595.05 694.1
L 595.05 702.4
Q 595.05 703.95 594.05 705.05 593.2 705.95 592.15 705.95
L 589.7 705.95 589.7 690.75
M 573.25 688.75
Q 572.05 687.8 569.3 687.8
L 563.95 687.8 563.95 718 569.3 718
Q 575.1 718 575.1 711.7
L 575.1 694.15
Q 575.1 690.2 573.25 688.75
M 569.3 688.05
Q 571.95 688.05 573.1 688.95 574.85 690.3 574.85 694.15
L 574.85 711.7
Q 574.85 717.75 569.3 717.75
L 564.25 717.75 564.25 688.05 569.3 688.05
M 572.75 689.4
Q 571.7 688.55 569.3 688.55
L 564.65 688.55 564.65 717.25 569.3 717.25
Q 574.4 717.25 574.4 711.7
L 574.4 694.15
Q 574.4 690.65 572.75 689.4
M 569.3 689.9
Q 571.2 689.9 572 690.55 573.05 691.45 573.1 694.15
L 573.1 711.7
Q 573.1 715.8 569.3 715.8
L 566 715.8 566 689.9 569.3 689.9
M 571.65 690.95
Q 571 690.4 569.3 690.4
L 566.45 690.4 566.45 715.3 569.3 715.3
Q 572.65 715.3 572.65 711.7
L 572.65 694.15
Q 572.55 691.75 571.65 690.95
M 569.3 690.7
Q 570.85 690.7 571.45 691.2 572.3 691.9 572.4 694.15
L 572.4 711.7
Q 572.4 715 569.3 715
L 566.7 715 566.7 690.7 569.3 690.7
M 561 690.65
L 561 687.8 551 687.8 551 718 561 718 561 715.05 553.75 715.05 553.75 710.2 559.45 710.2 559.45 707.35 553.75 707.35 553.75 690.65 561 690.65
M 560.7 688.05
L 560.7 690.35 553.5 690.35 553.5 707.6 559.25 707.6 559.25 709.95 553.5 709.95 553.5 715.35 560.7 715.35 560.7 717.75 551.25 717.75 551.25 688.05 560.7 688.05
M 560.3 689.85
L 560.3 688.55 551.75 688.55 551.75 717.25 560.3 717.25 560.3 715.85 553.05 715.85 553.05 709.45 558.75 709.45 558.75 708.1 553.05 708.1 553.05 689.85 560.3 689.85
M 548.15 690.65
L 548.15 687.8 538.15 687.8 538.15 718 548.15 718 548.15 715.05 540.9 715.05 540.9 710.2 546.6 710.2 546.6 707.35 540.9 707.35 540.9 690.65 548.15 690.65
M 547.85 688.05
L 547.85 690.35 540.65 690.35 540.65 707.6 546.4 707.6 546.4 709.95 540.65 709.95 540.65 715.35 547.85 715.35 547.85 717.75 538.4 717.75 538.4 688.05 547.85 688.05
M 547.45 689.85
L 547.45 688.55 538.9 688.55 538.9 717.25 547.45 717.25 547.45 715.85 540.2 715.85 540.2 709.45 545.9 709.45 545.9 708.1 540.2 708.1 540.2 689.85 547.45 689.85
M 525.65 687.8
L 525.65 690.65 529.3 690.65 529.3 718 531.9 718 531.9 690.65 535.6 690.65 535.6 687.8 525.65 687.8
M 525.85 690.35
L 525.85 688.05 535.3 688.05 535.3 690.35 531.7 690.35 531.7 717.75 529.55 717.75 529.55 690.35 525.85 690.35
M 526.35 688.55
L 526.35 689.85 530 689.85 530 717.25 531.2 717.25 531.2 689.85 534.85 689.85 534.85 688.55 526.35 688.55
M 513.9 687.8
L 511.35 687.8 511.35 718 514.1 718 514.1 697.75 520.6 718 523.05 718 523.05 687.8 520.3 687.8 520.3 708.45 513.9 687.8
M 511.65 688.05
L 513.65 688.05 520.6 710 520.6 688.05 522.85 688.05 522.85 717.75 520.75 717.75 513.9 696.3 513.9 717.75 511.65 717.75 511.65 688.05
M 513.35 688.55
L 512.1 688.55 512.1 717.25 513.4 717.25 513.4 695.15 513.1 691.4 513.15 691.4 521.1 717.25 522.35 717.25 522.35 688.55 521.05 688.55 521.05 710.55 521.4 714.65 521.35 714.65 513.35 688.55
M 504.15 687.8
L 501.25 687.8 496.9 718 499.65 718 500.8 710.15 504.7 710.15 505.7 718 508.55 718 504.15 687.8
M 501.4 688
L 504 688 508.25 717.75 505.9 717.75 504.85 709.95 500.6 709.95 499.45 717.75 497.2 717.75 501.4 688
M 503.55 688.55
L 501.85 688.55 497.8 717.25 499.05 717.25 500.2 709.45 505.3 709.45 506.35 717.25 507.7 717.25 503.55 688.55
M 505.15 708.25
L 500.25 708.25 502.7 691.05 505.15 708.25
M 500.85 707.75
L 504.55 707.75 502.7 694.45 500.85 707.75
M 504.25 707.55
L 501.1 707.55 502.7 696.25 504.25 707.55
M 483.55 687.8
L 483.55 718 486.35 718 486.35 710.4 489.75 710.4
Q 491.75 710.4 491.75 712.4
L 491.75 718 494.5 718 494.5 712.4
Q 494.5 709.85 492.6 708.45 494.35 706.7 494.35 703.95
L 494.35 694.2
Q 494.35 690.95 492.55 689.25 491 687.8 488.8 687.8
L 483.55 687.8
M 483.8 717.75
L 483.8 688.05 488.8 688.05
Q 490.9 688.05 492.35 689.45 494.1 691.1 494.1 694.2
L 494.1 703.95
Q 494.1 706.95 492.2 708.45 494.3 709.7 494.3 712.4
L 494.3 717.75 491.95 717.75 491.95 712.4
Q 491.95 710.1 489.75 710.1
L 486.1 710.1 486.1 717.75 483.8 717.75
M 485.65 717.25
L 485.65 709.6 489.75 709.6
Q 492.45 709.6 492.45 712.4
L 492.45 717.25 493.8 717.25 493.8 712.4
Q 493.8 709.3 491.05 708.6 493.65 707.45 493.65 703.95
L 493.65 694.2
Q 493.65 691.35 492.05 689.85 490.75 688.55 488.8 688.55
L 484.25 688.55 484.25 717.25 485.65 717.25
M 485.65 708.25
L 485.65 689.9 488.8 689.9
Q 490.4 689.9 491.35 691.05 492.35 692.2 492.35 694.2
L 492.35 703.95
Q 492.35 705.85 491.15 707.15 490.05 708.25 488.8 708.25
L 485.65 708.25
M 488.8 690.4
L 486.1 690.4 486.1 707.75 488.8 707.75
Q 489.9 707.75 490.85 706.75 491.9 705.65 491.9 703.95
L 491.9 694.2
Q 491.9 690.4 488.8 690.4
M 486.35 690.7
L 488.8 690.7
Q 491.65 690.7 491.65 694.2
L 491.65 703.95
Q 491.65 705.55 490.7 706.55 489.85 707.5 488.8 707.5
L 486.35 707.5 486.35 690.7
M 476.45 687.8
L 473.55 687.8 469.2 718 471.95 718 473.1 710.15 477 710.15 478 718 480.85 718 476.45 687.8
M 473.7 688
L 476.3 688 480.55 717.75 478.2 717.75 477.15 709.95 472.9 709.95 471.75 717.75 469.5 717.75 473.7 688
M 475.85 688.55
L 474.15 688.55 470.1 717.25 471.35 717.25 472.5 709.45 477.6 709.45 478.65 717.25 480 717.25 475.85 688.55
M 477.45 708.25
L 472.55 708.25 475 691.05 477.45 708.25
M 473.15 707.75
L 476.85 707.75 475 694.45 473.15 707.75
M 476.55 707.55
L 473.4 707.55 475 696.25 476.55 707.55
M 465.6 689.35
Q 464.05 687.55 461.6 687.55 459.05 687.55 457.5 689.45 456 691.3 456 694.1
L 456 711.65
Q 456 714.5 457.6 716.35 459.15 718.25 461.65 718.25 464.1 718.25 465.7 716.25 467.15 714.35 467.15 711.65
L 467.15 707.15 460.55 707.15 460.55 710 464.5 710 464.5 711.65
Q 464.5 713.15 463.7 714.25 462.9 715.3 461.65 715.3 460.35 715.3 459.55 714.15 458.8 713.1 458.8 711.65
L 458.8 694.1
Q 458.8 692.45 459.55 691.4 460.35 690.35 461.6 690.35 462.95 690.35 463.75 691.45 464.5 692.5 464.5 694.1
L 464.5 697.3 467.2 697.3 467.2 694.1
Q 467.2 691.2 465.6 689.35
M 461.6 687.75
Q 463.95 687.75 465.45 689.5 467 691.3 467 694.1
L 467 697 464.75 697 464.75 694.1
Q 464.75 692.35 463.95 691.25 463.1 690.1 461.6 690.1 460.2 690.1 459.35 691.25 458.5 692.35 458.5 694.1
L 458.5 711.65
Q 458.5 713.25 459.3 714.35 460.2 715.5 461.65 715.5 463.05 715.5 463.9 714.4 464.7 713.3 464.7 711.65
L 464.7 709.75 460.75 709.75 460.75 707.35 466.95 707.35 466.95 711.65
Q 466.95 714.25 465.5 716.05 464 718 461.65 718 459.25 718 457.75 716.2 456.3 714.4 456.3 711.65
L 456.3 694.1
Q 456.3 691.35 457.7 689.6 459.15 687.75 461.6 687.75
M 461.6 689.6
Q 463.3 689.6 464.3 690.9 465.25 692.15 465.25 694.1
L 465.25 696.5 466.5 696.5 466.5 694.1
Q 466.5 691.55 465.1 689.9 463.75 688.3 461.6 688.3 459.35 688.3 458 689.95 456.75 691.6 456.75 694.1
L 456.75 711.65
Q 456.75 714.2 458.1 715.85 459.45 717.55 461.65 717.55 463.8 717.55 465.15 715.7 466.45 714.05 466.45 711.65
L 466.45 707.9 461.25 707.9 461.25 709.25 465.2 709.25 465.2 711.65
Q 465.2 713.5 464.2 714.75 463.2 716.05 461.65 716.05 460 716.05 458.95 714.7 458.1 713.45 458.1 711.65
L 458.1 694.1
Q 458.1 692.1 459.05 690.85 460.05 689.6 461.6 689.6 Z"/>
</g>

<path id="Layer9_0_1_STROKES" stroke="#FFFFFF" stroke-width="15" stroke-linejoin="round" stroke-linecap="round" fill="none" d="
M 185.75 402.45
Q 204.15 411.4 222.5 407.7
M 360.45 493.15
L 362.3 493.15
M 373.05 493.15
L 375.95 493.15
M 362.3 493.15
L 365.4 493.15
M 373.05 493.15
L 368.4 493.15 365.4 493.15"/>

<path id="Layer8_0_1_STROKES" stroke="#FFFFFF" stroke-width="1" stroke-linejoin="round" stroke-linecap="round" fill="none" d="
M 144.05 486.1
Q 149.1 482.2 154.65 473.5
L 161.65 466.45
M 144.05 486.1
L 137.65 493.25"/>

<path id="Layer7_0_1_STROKES" stroke="#FFFFFF" stroke-width="8" stroke-linejoin="round" stroke-linecap="round" fill="none" d="
M 386.75 254.45
Q 363.25 260.4 345.4 284.5
M 285.1 392.85
Q 283.55 382.95 319.15 385.8 286.65 402.75 285.1 392.85 Z"/>

<path id="Layer3_0_1_STROKES" stroke="#FFFFFF" stroke-width="2" stroke-linejoin="round" stroke-linecap="round" fill="none" d="
M 751.75 628.15
L 783 628.15 795 628.15 795 619.25
M 647.45 628.15
L 751.75 628.15
M 439.75 615
Q 439.75 615.85 439.15 616.4 438.6 617 437.75 617 436.9 617 436.3 616.4 435.75 615.85 435.75 615 435.75 614.15 436.3 613.55 436.9 613 437.75 613 438.6 613 439.15 613.55 439.75 614.15 439.75 615 Z
M 438.6 645.4
Q 438.45 645.05 438.45 644.6 438.45 643.6 439.15 642.9 439.85 642.2 440.85 642.2 441.85 642.2 442.55 642.9 442.95 643.3 443.15 643.85 443.25 644.2 443.25 644.6 443.25 645.6 442.55 646.3 441.85 647 440.85 647 439.85 647 439.15 646.3 438.75 645.9 438.6 645.4 Z
M 370.1 656.75
Q 370.1 657.85 369.35 658.6 368.6 659.35 367.5 659.35 366.4 659.35 365.65 658.6 364.9 657.85 364.9 656.75 364.9 655.65 365.65 654.9 366.4 654.15 367.5 654.15 368.6 654.15 369.35 654.9 370.1 655.65 370.1 656.75 Z"/>

<path id="Layer3_0_2_STROKES" stroke="#FFFFFF" stroke-width="3" stroke-linejoin="round" stroke-linecap="round" fill="none" d="
M 728.25 607
L 799.75 607 800 607
M 728.25 607
L 725.5 607
Q 726.375 614.125 720.25 619.25
L 751.75 619.25 795 619.25 799.75 619.25 799.75 607
M 736.25 602.5
L 736.25 598.25
M 649.85 619.25
L 720.25 619.25
M 383.05 628.4
L 360.15 637
Q 348.3 642.7 336.4 640.75 331.2 637.95 313.9 640.75
L 255.7 650.4 220.7 656.2
M 229.05 714.1
L 396.95 648.8
M 383.05 628.4
L 387.1 626.9
M 405.5 617.25
L 426.55 607.85
Q 427.9 607.15 429.6 607
L 504.35 607 725.5 607
M 396.95 648.8
L 411.15 643.25
Q 411.7 643.05 412.25 642.85
L 403.15 622.25 399.4 622.25 387.1 626.9
M 416.25 641.55
Q 420.35 640.45 424 640.65 431.3 640.9 436.85 646
L 438.6 645.4
M 443.15 643.85
L 444.85 643.25
Q 447.75 635.45 458.1 636
L 497.6 636
Q 500.6 636.1 501.95 634.9 502.95 634.05 503.1 632.5
M 443.75 622.75
L 510.55 622.75
M 412.25 642.85
Q 414.3 642.05 416.25 641.55
M 403.15 622.25
L 406.95 620.55 422.35 613.5
Q 423.55 609.4 426.55 607.85
M 375.65 668
L 401.65 657
Q 405.8 656.25 407.05 658.8 408.55 661.4 405.65 664
L 379.4 675.5
Q 375.35 676.65 373.55 673.65 371.65 670.85 375.65 668 Z
M 634.75 635
L 632.25 635
M 539.5 602.5
L 539.5 598.25
M 510.55 615.2
L 510.55 618
M 504.35 607
L 505.45 613.3 510.55 615.2"/>

<path id="Layer3_0_3_STROKES" stroke="#FFFFFF" stroke-width="1" stroke-linejoin="round" stroke-linecap="round" fill="none" d="
M 783 628.15
L 783 635 789.75 635
M 788.25 602.5
L 736.25 602.5 731.1 602.5 728.25 607
M 751.75 619.25
Q 754.6490234375 624.183203125 751.75 628.15
M 634.75 635
L 783 635
M 539.5 602.5
L 731.1 602.5 792.15 505.9
M 255.7 650.4
Q 264.85 668.4 295 662.5
L 371.75 650
Q 390.75 646.85 383.05 628.4
M 387.1 626.9
L 396.95 648.8
M 406.75 601.75
Q 412.5 606.1 404.25 614
L 417.5 608
Q 410.8 599.65 406.75 601.75 Z
M 406.95 620.55
L 416.25 641.55
M 409.4 649.25
Q 407.45 650.5 408.9 653.5 411.75 663.65 425.35 662 437.4 659.9 437.85 650
L 445.6 647.25
Q 444.9 654.5 439.1 660.9 429.6 671.35 412.65 666.25
L 380.55 680.6
Q 375.7 682.95 371.7 680.2 366.7 676.5 367.55 670.8
L 363.4 668.25
M 424 640.65
Q 415.3 643.75 419.45 655.7 413.8 651.05 415.2 643.3
M 644.5 615.2
L 632.25 635
M 636.5 615.2
L 624.25 635
M 620.25 615.2
L 606.75 635
M 539.5 602.5
L 490.75 602.5
M 435.75 618
L 510.55 618
M 405.5 617.25
L 337.1 541"/>

<path id="Layer3_0_4_STROKES" stroke="#FFFFFF" stroke-width="5" stroke-linejoin="round" stroke-linecap="round" fill="none" d="
M 220.7 656.2
Q 230.7 680.55 229.05 714.1
L 213.2 720.25
Q 215.45 687.8 209.7 658
L 220.7 656.2 Z
M 209.7 658
Q 230.9 686.15 213.2 720.25"/>

<path id="Layer3_0_5_STROKES" stroke="#FFFFFF" stroke-width="1.7" stroke-linejoin="round" stroke-linecap="round" fill="none" d="
M 448.85 614.8
Q 448.85 614.5 449.1 614.25 449.35 614 449.7 614
L 449.75 614
Q 450.05 614 450.3 614.25 450.55 614.5 450.55 614.85 450.55 615.2 450.3 615.45 450.05 615.7 449.75 615.7
L 449.7 615.7
Q 449.35 615.7 449.1 615.45 448.85 615.2 448.85 614.85
L 448.85 614.8 444.7 614.8
Q 444.7 615.15 444.45 615.4 444.35 615.5 444.2 615.6 444.05 615.65 443.85 615.65 443.5 615.65 443.25 615.4 443 615.15 443 614.8 443 614.45 443.25 614.2 443.5 613.95 443.85 613.95 444.05 613.95 444.2 614.05 444.35 614.1 444.45 614.2 444.7 614.45 444.7 614.8
L 443.9 614.8
M 448.85 614.8
L 449.8 614.8"/>

<path id="Layer3_0_6_STROKES" stroke="#FFFFFF" stroke-width="4" stroke-linejoin="round" stroke-linecap="round" fill="none" d="
M 409.4 649.25
L 363.4 668.25"/>

<path id="Layer3_0_7_STROKES" stroke="#FFFFFF" stroke-width="9" stroke-linejoin="round" stroke-linecap="round" fill="none" d="
M 647.45 628.15
Q 643.75 632.4 634.75 635
M 649.85 619.25
Q 649.85 619.95 649.9 620.7 650.2 624.9 647.45 628.15
M 510.55 615.2
L 620.25 615.2 636.5 615.2 644.5 615.2 650.25 615.2
Q 649.8 617.1 649.85 619.25
M 503.1 632.5
Q 505.1 628.85 510.55 629.25
L 510.55 622.75
M 632.25 635
L 624.25 635 606.75 635 501.95 634.9
M 510.55 622.75
L 510.55 618"/>

<path id="Layer2_0_1_STROKES" stroke="#FFFFFF" stroke-width="1" stroke-linejoin="round" stroke-linecap="round" fill="none" d="
M 792.15 505.9
Q 792.576953125 501.2390625 792.125 496.95 792.106640625 496.6724609375 792.075 496.4
L 792.075 496.375
Q 788.9435546875 482.5751953125 778.05 484.3
M 781.65 474.35
Q 790.630859375 483.7498046875 792.075 496.375 796.285546875 489.5943359375 791.6 479.25
M 337.1 541
Q 334.05 535.0791015625 330.6 530.25 331.234765625 532.1189453125 331.7 534.1
M 309.7 507.3
Q 325.524609375 515.192578125 330.6 530.25 319.4521484375 514.6169921875 304.15 510.4"/>
</defs>

<g transform="matrix( 1, 0, 0, 1, 0,0) ">
<use xlink:href="#Layer10_0_FILL"/>
</g>

<g transform="matrix( 1, 0, 0, 1, 0,0) ">
<use xlink:href="#Layer9_0_FILL"/>

<use xlink:href="#Layer9_0_1_STROKES"/>
</g>

<g transform="matrix( 1, 0, 0, 1, 0,0) ">
<use xlink:href="#Layer8_0_FILL"/>

<use xlink:href="#Layer8_0_1_STROKES"/>
</g>

<g transform="matrix( 1, 0, 0, 1, 0,0) ">
<use xlink:href="#Layer7_0_1_STROKES"/>
</g>

<g transform="matrix( 1, 0, 0, 1, 0,0) ">
<use xlink:href="#Layer6_0_FILL"/>
</g>

<g transform="matrix( 0.422119140625, 0, 0, 0.422119140625, 403.4,197.65) ">
<g transform="matrix( 1, 0, 0, 1, 0,0) ">
<use filter="url(#Filter_1)" xlink:href="#_______2_0_Layer0_0_FILL"/>
</g>
</g>

<g transform="matrix( 0.422119140625, 0, 0, 0.422119140625, 519.05,224.85) ">
<g transform="matrix( 1, 0, 0, 1, 0,0) ">
<use filter="url(#Filter_1)" xlink:href="#_______3_0_Layer0_0_FILL"/>
</g>
</g>

<g transform="matrix( 1, 0, 0, 1, 0,0) ">
<use xlink:href="#Layer5_0_FILL"/>
</g>

<g transform="matrix( 1, 0, 0, 1, 0,0) ">
<use xlink:href="#Layer3_0_FILL"/>

<use xlink:href="#Layer3_0_1_STROKES"/>

<use xlink:href="#Layer3_0_2_STROKES"/>

<use xlink:href="#Layer3_0_3_STROKES"/>

<use xlink:href="#Layer3_0_4_STROKES"/>

<use xlink:href="#Layer3_0_5_STROKES"/>

<use xlink:href="#Layer3_0_6_STROKES"/>

<use xlink:href="#Layer3_0_7_STROKES"/>
</g>

<g transform="matrix( 1, 0, 0, 1, 0,0) ">
<use xlink:href="#Layer2_0_1_STROKES"/>
</g>

<g transform="matrix( 1, 0, 0, 1, 0,0) ">
<use xlink:href="#Layer1_0_FILL"/>
</g>
</svg>
