
<svg xmlns="http://www.w3.org/2000/svg" version="1.1" xmlns:xlink="http://www.w3.org/1999/xlink" preserveAspectRatio="none" x="0px" y="0px" width="92px" height="720px" viewBox="0 0 92 720">
<defs>

<!-- Hey, BANANA! -->
<path id="banana" stroke="#000000" stroke-width="6" stroke-linejoin="round" stroke-linecap="round" fill="none" d="
M 74.8 31.7
Q 79.4 25.1 80.8 18.45
L 83.55 18.45 81.75 32.75
Q 69.2 86.55 15.65 67.15 13.2 66.3 10.65 65.25
L 9.65 56.75
Q 11.55 56.75 13.4 56.7
L 13.45 56.7
Q 46.8 50.75 73.65 32.75
L 81.75 32.75
M 13.4 56.7
L 15.65 67.15
M 13.45 56.7
Q 56.25 64.1 73.65 32.75"/>

<!-- Bar -->
<g id="bar_fill">
<path fill="#000000" stroke="none" d="
M 79.35 33
Q 79.55 27.05 73.85 25 43.4 20.1 18.85 25 13.15 27.05 13.35 33
L 13.35 57.25
Q 13.15 63.2 18.85 65.25 46.35 71.1 73.85 65.25 79.55 63.2 79.35 57.25
L 79.35 33
M 43.5 34.75
L 48.3 34.75 56.2 56.1 50.65 56.1 49.45 52.1 42.4 52.1 41.15 56.1 35.65 56.1 43.5 34.75
M 65.65 48.55
L 62.85 48.55 62.85 56.1 57.7 56.1 57.7 34.75 66.1 34.75
Q 69.9 34.75 72.05 36.45 74.2 38.15 74.2 41.2 74.2 43.45 73.3 44.9 72.35 46.35 70.45 47.25
L 74.9 55.9 74.9 56.1 69.4 56.1 65.65 48.55
M 33.25 43.5
Q 32.5 44.65 31.05 45.2 32.7 45.65 33.6 46.85 34.5 48.05 34.5 49.8 34.5 52.9 32.5 54.5 30.5 56.05 26.6 56.1
L 17.95 56.1 17.95 34.75 25.6 34.75
Q 29.75 34.75 31.9 36.3 34.05 37.8 34.05 40.65 34.05 42.3 33.25 43.5
M 26.7 47.05
L 23.1 47.05 23.1 52.15 26.45 52.15
Q 27.85 52.15 28.6 51.5 29.35 50.85 29.35 49.7 29.35 47.05 26.7 47.05
M 28.15 39.35
Q 27.35 38.75 25.6 38.75
L 23.1 38.75 23.1 43.65 25.8 43.65
Q 27.45 43.65 28.2 43.05 28.9 42.45 28.9 41.3 28.9 39.9 28.15 39.35
M 68.3 39.5
Q 67.55 38.75 66.1 38.75
L 62.85 38.75 62.85 44.6 66.1 44.6
Q 67.55 44.6 68.3 43.8 69.05 43.05 69.05 41.7 69.05 40.3 68.3 39.5
M 48.2 48.15
L 45.9 40.75 43.6 48.15 48.2 48.15 Z"/>
</g>
<path id="bar_stroke" stroke="#000000" stroke-width="6" stroke-linejoin="round" stroke-linecap="round" fill="none" d="
M 18.85 25
Q 13.15 27.05 13.35 33
L 13.35 57.25
Q 13.15 63.2 18.85 65.25 46.35 71.1 73.85 65.25 79.55 63.2 79.35 57.25
L 79.35 33
Q 79.55 27.05 73.85 25 43.4 20.1 18.85 25 Z"/>

<!-- SEVEN -->
<g id="seven">
<path fill="#000000" stroke="none" d="
M 70.75 20.85
L 70.75 12.5 22.1 12.5 22.1 24.55 54.3 24.55 29 80.05 45.55 80.05 70.75 20.85 Z"/>
</g>

<!-- CHERRY -->
<g id="cherry1">
<path fill="#000000" stroke="none" d="
M 55.95 49.15
Q 53.75 47.9 51.75 47.85 50.2 47.8 49.4 48.55 49.25 48.7 49.1 48.95 48.45 50.1 49.45 51.85 50.2 53 51.5 53.95 52.05 54.4 52.7 54.75 54.85 56 56.8 56.1 58.85 56.1 59.5 54.95 60.2 53.75 59.1 52.1 58.1 50.4 55.95 49.15 Z"/>
</g>
<path id="cherry2" stroke="#000000" stroke-width="7" stroke-linejoin="round" stroke-linecap="round" fill="none" d="
M 37.55 43.4
Q 41.25 41.1 45.7 40.6 46.5 40.5 47.3 40.5 47.7 40.45 48.15 40.45 56.55 40.45 62.45 46.35 68.4 52.3 68.4 60.7 68.4 69.1 62.45 75 56.55 80.95 48.15 80.95 39.75 80.95 33.8 75 29.6 70.8 28.4 65.4
M 37.55 43.4
Q 35.55 44.6 33.8 46.35 27.9 52.3 27.9 60.7 27.9 63.15 28.4 65.4
M 83.35 11.2
Q 59.4 4.25 52.85 30.2 76.55 30.1 83.35 11.2 Z"/>
<path id="cherry3" stroke="#000000" stroke-width="2" stroke-linejoin="round" stroke-linecap="round" fill="none" d="
M 49.1 48.95
Q 48.45 50.1 49.45 51.85 50.2 53 51.5 53.95 52.05 54.4 52.7 54.75 54.85 56 56.8 56.1 58.85 56.1 59.5 54.95 60.2 53.75 59.1 52.1 58.1 50.4 55.95 49.15 53.75 47.9 51.75 47.85 50.2 47.8 49.4 48.55 49.25 48.7 49.1 48.95 Z"/>
<path id="cherry4" stroke="#000000" stroke-width="8" stroke-linejoin="round" stroke-linecap="round" fill="none" d="
M 33.9 35.75
L 44.25 26.95 50.15 39.2"/>
<path id="cherry5" stroke="#000000" stroke-width="4" stroke-linejoin="round" stroke-linecap="round" fill="none" d="
M 28.4 65.4
Q 26.4 65.95 24.15 65.95 17.85 65.95 13.35 61.45 8.9 57 8.9 50.7 8.9 44.4 13.35 39.9 17.85 35.45 24.15 35.45 26.55 35.45 28.7 36.1 29.55 36.35 30.35 36.75 30.7 36.9 31.05 37.05 32.1 37.6 33.05 38.3 34 39 34.9 39.9 36.5 41.5 37.55 43.4"/>

<!-- LEMON  -->
<path id="lemon1" stroke="#000000" stroke-width="6" stroke-linejoin="round" stroke-linecap="round" fill="none" d="
M 46.85 18.35
Q 49.9 17.15 53.1 16.6 61.05 15.15 66.75 17.75 67.65 17.4 68.75 17.4 71.45 17.4 73.35 19.3 75.2 21.2 75.2 23.9 75.2 25 74.95 26.05 77.45 31.65 75.95 39.45 73.8 51.1 64.05 60.9 54.3 70.7 42.65 72.85 36.75 73.95 32.1 72.75 14.35 79.7 20.1 61.35 18.5 56.4 19.7 49.95 21.05 42.85 25.2 36.55"/>
<path id="lemon2" stroke="#000000" stroke-width="8" stroke-linejoin="round" stroke-linecap="round" fill="none" d="
M 25.2 36.55
Q 21.05 35.55 16.7 33.95 29.1 15.6 46.85 18.35 54.55 19.5 63.35 24.8 49.05 42.05 25.2 36.55 Z"/>

<!-- BARBAR -->
<g id="barbar1">
<path fill="#000000" stroke="none" d="
M 77.35 71
L 22.35 71
Q 49.85 76.85 77.35 71
M 15.85 19.25
L 70.85 19.25
Q 40.4 14.35 15.85 19.25
M 82.85 63
L 82.85 50.25
Q 83.05 44.3 77.35 42.25 76.8 42.15 76.25 42.1 76.4 41.1 76.35 40
L 76.35 27.25
Q 76.55 21.3 70.85 19.25
L 15.85 19.25
Q 10.15 21.3 10.35 27.25
L 10.35 40
Q 10.15 45.95 15.85 48 16.4 48.1 17 48.25 16.8 49.2 16.85 50.25
L 16.85 63
Q 16.65 68.95 22.35 71
L 77.35 71
Q 83.05 68.95 82.85 63
M 59.4 36.55
L 57.1 36.55 57.1 42.7 52.9 42.7 52.9 25.3 59.75 25.3
Q 62.85 25.3 64.6 26.65 66.35 28.05 66.35 30.55 66.35 32.35 65.65 33.55 64.9 34.75 63.3 35.5
L 66.95 42.5 66.95 42.7 62.45 42.7 59.4 36.55
M 41.3 25.3
L 45.25 25.3 51.7 42.7 47.15 42.7 46.15 39.45 40.4 39.45 39.4 42.7 34.9 42.7 41.3 25.3
M 47.8 48.3
L 51.75 48.3 58.2 65.7 53.65 65.7 52.65 62.45 46.9 62.45 45.9 65.7 41.4 65.7 47.8 48.3
M 66.25 48.3
Q 67.45 48.3 68.45 48.5 70 48.8 71.1 49.65 72.85 51.05 72.85 53.55 72.85 55.35 72.15 56.55 71.4 57.75 69.8 58.5
L 73.45 65.5 73.45 65.7 68.95 65.7 65.9 59.55 63.6 59.55 63.6 65.7 59.4 65.7 59.4 48.3 66.25 48.3
M 33.6 30.1
Q 33.6 31.45 32.95 32.4 32.35 33.35 31.15 33.8 32.5 34.15 33.25 35.15 33.95 36.15 33.95 37.55 33.95 40.1 32.35 41.4 30.7 42.7 27.55 42.7
L 20.45 42.7 20.45 25.3 26.7 25.3
Q 30.1 25.3 31.85 26.5 33.6 27.75 33.6 30.1
M 26.95 48.3
L 33.2 48.3
Q 36.6 48.3 38.35 49.5 39.15 50.05 39.6 50.9 40.1 51.8 40.1 53.1 40.1 54.45 39.45 55.4 38.85 56.35 37.65 56.8 39 57.15 39.75 58.15 40.45 59.15 40.45 60.55 40.45 63.1 38.85 64.4 37.2 65.7 34.05 65.7
L 26.95 65.7 26.95 48.3
M 34.1 58.3
L 31.15 58.3 31.15 62.45 33.9 62.45
Q 35.05 62.45 35.65 61.95 36.25 61.45 36.25 60.5 36.25 58.3 34.1 58.3
M 33.2 51.5
L 31.15 51.5 31.15 55.55 33.35 55.55
Q 34.75 55.55 35.3 55.05 35.9 54.55 35.9 53.6 35.9 52.5 35.25 52 34.65 51.5 33.2 51.5
M 27.6 35.3
L 24.65 35.3 24.65 39.45 27.4 39.45
Q 28.55 39.45 29.15 38.95 29.75 38.45 29.75 37.5 29.75 35.3 27.6 35.3
M 29.4 30.6
Q 29.4 29.5 28.75 29 28.15 28.5 26.7 28.5
L 24.65 28.5 24.65 32.55 26.85 32.55
Q 28.25 32.55 28.8 32.05 29.4 31.55 29.4 30.6
M 63.6 51.5
L 63.6 56.3 66.25 56.3
Q 67.45 56.3 68.1 55.7 68.65 55.05 68.65 53.95 68.65 52.8 68.05 52.15 67.45 51.5 66.25 51.5
L 63.6 51.5
M 51.65 59.2
L 49.75 53.15 47.9 59.2 51.65 59.2
M 41.4 36.2
L 45.15 36.2 43.25 30.15 41.4 36.2
M 57.1 28.5
L 57.1 33.3 59.75 33.3
Q 60.95 33.3 61.6 32.7 62.15 32.05 62.15 30.95 62.15 29.8 61.55 29.15 60.95 28.5 59.75 28.5
L 57.1 28.5 Z"/>
</g>
<path id="barbar2" stroke="#000000" stroke-width="6" stroke-linejoin="round" stroke-linecap="round" fill="none" d="
M 77.35 71
Q 83.05 68.95 82.85 63
L 82.85 50.25
Q 83.05 44.3 77.35 42.25
M 76.25 42.1
Q 76.4 41.1 76.35 40
L 76.35 27.25
Q 76.55 21.3 70.85 19.25
L 15.85 19.25
Q 10.15 21.3 10.35 27.25
L 10.35 40
Q 10.15 45.95 15.85 48 16.4 48.1 17 48.25
M 16.85 50.25
L 16.85 63
Q 16.65 68.95 22.35 71
L 77.35 71"/>

<!-- WATERMELON -->
<g id="watermelon1">
<path fill="#000000" stroke="none" d="
M 36.95 38.3
Q 37.1 40.05 37.25 41.8
L 56.5 41.8
Q 50.65 38.35 36.95 38.3
M 33.5 26.5
Q 33.5 26.65 33.55 26.7 34.7 28.95 35.45 31.5 52.7 29.2 64.8 34.1 52 24.55 33.5 26.5
M 37.95 59.95
Q 37.95 60 37.95 60.05 50.65 61.4 59.4 54.9 51.1 58.2 39.25 56.7 38.7 58.4 37.95 59.95
M 23.2 53.65
Q 22.95 52.85 22.55 52.85 22.2 52.85 21.9 53.65 21.65 54.5 21.65 55.6 21.65 56.75 21.9 57.55 22.2 58.4 22.55 58.4 22.95 58.4 23.2 57.55 23.5 56.75 23.5 55.6 23.5 54.5 23.2 53.65
M 28.25 52.1
Q 28.25 53.25 28.45 54.05 28.75 54.9 29.1 54.9 29.55 54.9 29.75 54.05 30.05 53.25 30.05 52.1 30.05 51 29.75 50.15 29.55 49.35 29.1 49.35 28.75 49.35 28.45 50.15 28.25 51 28.25 52.1
M 23.5 45.6
Q 23.5 46.8 23.75 47.55 24 48.4 24.45 48.4 24.85 48.4 25.1 47.55 25.4 46.8 25.4 45.6 25.4 44.45 25.1 43.65 24.85 42.85 24.45 42.85 24 42.85 23.75 43.65 23.5 44.45 23.5 45.6
M 29.95 39.8
Q 29.55 39.8 29.3 40.55 29 41.4 29 42.5 29 43.65 29.3 44.45 29.55 45.3 29.95 45.3 30.35 45.3 30.6 44.45 30.9 43.65 30.9 42.5 30.9 41.4 30.6 40.55 30.35 39.8 29.95 39.8
M 25.9 36.6
Q 26.2 35.75 26.2 34.65 26.2 33.5 25.9 32.7 25.7 31.9 25.25 31.9 24.85 31.9 24.6 32.7 24.4 33.5 24.4 34.65 24.4 35.75 24.6 36.6 24.85 37.4 25.25 37.4 25.7 37.4 25.9 36.6
M 18.75 46.15
Q 18.5 45.3 18.1 45.3 17.7 45.3 17.4 46.15 17.15 46.9 17.15 48.05 17.15 49.2 17.4 50 17.7 50.8 18.1 50.8 18.5 50.8 18.75 50 19.05 49.2 19.05 48.05 19.05 46.9 18.75 46.15
M 19.95 35.7
Q 19.6 35.7 19.3 36.55 19.05 37.3 19.05 38.5 19.05 39.6 19.3 40.45 19.6 41.2 19.95 41.2 20.35 41.2 20.6 40.45 20.9 39.6 20.9 38.5 20.9 37.3 20.6 36.55 20.35 35.7 19.95 35.7 Z"/>
</g>
<path id="watermelon2" stroke="#000000" stroke-width="6" stroke-linejoin="round" stroke-linecap="round" fill="none" d="
M 21.9 19.45
Q 22.7 19.05 23.6 18.8 30.85 16.9 39.2 16.9 56.7 16.9 69.05 25.2 81.45 33.55 81.45 45.35 81.45 57.15 69.05 65.45 56.7 73.8 39.2 73.8 31.15 73.8 24.15 72.05 22.5 71.6 21.05 71 18.05 69.2 15.6 64.25 11.8 56.5 11.8 45.5 11.8 34.45 15.6 26.7 15.9 26.1 16.25 25.5 18.4 21.55 21 19.75 21.3 19.65 21.55 19.6
L 21.65 19.5 21.9 19.45
Q 22.7 19.1 23.6 19 24 18.95 24.45 18.95 29.7 18.95 33.5 26.5
M 35.45 31.5
Q 36.45 34.7 36.95 38.3
M 37.25 41.8
Q 37.35 43.6 37.35 45.5 37.35 56.5 33.55 64.25 29.75 72.05 24.45 72.05 24.25 72.05 24.15 72.05
M 33.5 26.5
Q 33.5 26.65 33.55 26.7 34.7 28.95 35.45 31.5
M 36.95 38.3
Q 37.1 40.05 37.25 41.8"/>
<path id="watermelon3" stroke="#000000" stroke-width="2.2" stroke-linejoin="round" stroke-linecap="round" fill="none" d="
M 33.5 26.5
Q 52 24.55 64.8 34.1 52.7 29.2 35.45 31.5
M 36.95 38.3
Q 50.65 38.35 56.5 41.8
L 37.25 41.8
M 20.9 38.5
Q 20.9 39.6 20.6 40.45 20.35 41.2 19.95 41.2 19.6 41.2 19.3 40.45 19.05 39.6 19.05 38.5 19.05 37.3 19.3 36.55 19.6 35.7 19.95 35.7 20.35 35.7 20.6 36.55 20.9 37.3 20.9 38.5 Z
M 19.05 48.05
Q 19.05 49.2 18.75 50 18.5 50.8 18.1 50.8 17.7 50.8 17.4 50 17.15 49.2 17.15 48.05 17.15 46.9 17.4 46.15 17.7 45.3 18.1 45.3 18.5 45.3 18.75 46.15 19.05 46.9 19.05 48.05 Z
M 26.2 34.65
Q 26.2 35.75 25.9 36.6 25.7 37.4 25.25 37.4 24.85 37.4 24.6 36.6 24.4 35.75 24.4 34.65 24.4 33.5 24.6 32.7 24.85 31.9 25.25 31.9 25.7 31.9 25.9 32.7 26.2 33.5 26.2 34.65 Z
M 30.9 42.5
Q 30.9 43.65 30.6 44.45 30.35 45.3 29.95 45.3 29.55 45.3 29.3 44.45 29 43.65 29 42.5 29 41.4 29.3 40.55 29.55 39.8 29.95 39.8 30.35 39.8 30.6 40.55 30.9 41.4 30.9 42.5 Z
M 25.4 45.6
Q 25.4 46.8 25.1 47.55 24.85 48.4 24.45 48.4 24 48.4 23.75 47.55 23.5 46.8 23.5 45.6 23.5 44.45 23.75 43.65 24 42.85 24.45 42.85 24.85 42.85 25.1 43.65 25.4 44.45 25.4 45.6 Z
M 39.25 56.7
Q 51.1 58.2 59.4 54.9 50.65 61.4 37.95 60.05
M 30.05 52.1
Q 30.05 53.25 29.75 54.05 29.55 54.9 29.1 54.9 28.75 54.9 28.45 54.05 28.25 53.25 28.25 52.1 28.25 51 28.45 50.15 28.75 49.35 29.1 49.35 29.55 49.35 29.75 50.15 30.05 51 30.05 52.1 Z
M 23.5 55.6
Q 23.5 56.75 23.2 57.55 22.95 58.4 22.55 58.4 22.2 58.4 21.9 57.55 21.65 56.75 21.65 55.6 21.65 54.5 21.9 53.65 22.2 52.85 22.55 52.85 22.95 52.85 23.2 53.65 23.5 54.5 23.5 55.6 Z"/>

<!-- BARBARBAR -->
<g id="barbarbar1">
<path fill="#000000" stroke="none" d="
M 46.9 74.1
L 52.65 74.1 53.65 77.35 58.2 77.35 51.75 59.95 47.8 59.95 41.4 77.35 45.9 77.35 46.9 74.1
M 49.75 64.8
L 51.65 70.85 47.9 70.85 49.75 64.8
M 68.45 60.15
Q 67.45 59.95 66.25 59.95
L 59.4 59.95 59.4 77.35 63.6 77.35 63.6 71.2 65.9 71.2 68.95 77.35 73.45 77.35 73.45 77.15 69.8 70.15
Q 71.4 69.4 72.15 68.2 72.85 67 72.85 65.2 72.85 62.7 71.1 61.3 70 60.45 68.45 60.15
M 66.25 63.15
Q 67.45 63.15 68.05 63.8 68.65 64.45 68.65 65.6 68.65 66.7 68.1 67.35 67.45 67.95 66.25 67.95
L 63.6 67.95 63.6 63.15 66.25 63.15
M 38.35 61.15
Q 36.6 59.95 33.2 59.95
L 26.95 59.95 26.95 77.35 34.05 77.35
Q 37.2 77.35 38.85 76.05 40.45 74.75 40.45 72.2 40.45 70.8 39.75 69.8 39 68.8 37.65 68.45 38.85 68 39.45 67.05 40.1 66.1 40.1 64.75 40.1 63.45 39.6 62.55 39.15 61.7 38.35 61.15
M 31.15 67.2
L 31.15 63.15 33.2 63.15
Q 34.65 63.15 35.25 63.65 35.9 64.15 35.9 65.25 35.9 66.2 35.3 66.7 34.75 67.2 33.35 67.2
L 31.15 67.2
M 31.15 74.1
L 31.15 69.95 34.1 69.95
Q 36.25 69.95 36.25 72.15 36.25 73.1 35.65 73.6 35.05 74.1 33.9 74.1
L 31.15 74.1
M 26.7 36.95
L 20.45 36.95 20.45 54.35 27.55 54.35
Q 30.7 54.35 32.35 53.05 33.95 51.75 33.95 49.2 33.95 47.8 33.25 46.8 32.5 45.8 31.15 45.45 32.35 45 32.95 44.05 33.6 43.1 33.6 41.75 33.6 39.4 31.85 38.15 30.1 36.95 26.7 36.95
M 26.7 40.15
Q 28.15 40.15 28.75 40.65 29.4 41.15 29.4 42.25 29.4 43.2 28.8 43.7 28.25 44.2 26.85 44.2
L 24.65 44.2 24.65 40.15 26.7 40.15
M 27.6 46.95
Q 29.75 46.95 29.75 49.15 29.75 50.1 29.15 50.6 28.55 51.1 27.4 51.1
L 24.65 51.1 24.65 46.95 27.6 46.95
M 45.25 36.95
L 41.3 36.95 34.9 54.35 39.4 54.35 40.4 51.1 46.15 51.1 47.15 54.35 51.7 54.35 45.25 36.95
M 43.25 41.8
L 45.15 47.85 41.4 47.85 43.25 41.8
M 59.75 36.95
L 52.9 36.95 52.9 54.35 57.1 54.35 57.1 48.2 59.4 48.2 62.45 54.35 66.95 54.35 66.95 54.15 63.3 47.15
Q 64.9 46.4 65.65 45.2 66.35 44 66.35 42.2 66.35 39.7 64.6 38.3 62.85 36.95 59.75 36.95
M 57.1 44.95
L 57.1 40.15 59.75 40.15
Q 60.95 40.15 61.55 40.8 62.15 41.45 62.15 42.6 62.15 43.7 61.6 44.35 60.95 44.95 59.75 44.95
L 57.1 44.95
M 48.15 31.1
L 30.15 31.1
Q 38.95 33 48.15 31.1
M 29.65 30.9
Q 28 30.25 26.9 29.25 21.25 29.85 15.85 30.9
L 29.65 30.9
M 57.35 32.7
Q 58.35 32.75 59.35 32.75 65.85 32.8 72.5 31.65 73.8 31.4 75.15 31.1
L 49.35 31.1 49.35 32
Q 53.35 32.6 57.35 32.7
M 59.35 5.2
Q 58.35 5.15 57.35 5.15 54.05 5.15 50.9 5.25 50.1 5.2 49.35 5.2
L 49.35 5.3
Q 39.35 5.75 30.15 7.6
L 75.15 7.6
Q 67.05 6.3 59.35 5.7
L 59.35 5.2
M 80.65 23.25
Q 80.65 23.2 80.65 23.1
L 80.65 15.6
Q 80.85 9.65 75.15 7.6
L 30.15 7.6
Q 24.45 9.65 24.65 15.6
L 24.65 23.1
Q 24.65 23.2 24.65 23.25 24.55 27.05 26.9 29.25 28 30.25 29.65 30.9 29.9 31 30.15 31.1
L 48.15 31.1
Q 48.65 31 49.15 30.9
L 49.35 30.9 49.35 31.1 75.15 31.1
Q 80.8 29.1 80.65 23.25
M 66.55 12.6
Q 69.1 12.6 70.55 13.7 71.95 14.85 71.95 16.9 71.95 18.35 71.35 19.35 70.75 20.3 69.45 20.9
L 72.45 26.65 72.45 26.8 68.75 26.8 66.25 21.75 64.4 21.75 64.4 26.8 60.95 26.8 60.95 12.6 66.55 12.6
M 45.2 16.5
Q 45.2 17.6 44.7 18.4 44.15 19.15 43.2 19.55 44.3 19.85 44.9 20.65 45.5 21.45 45.5 22.6 45.5 24.7 44.15 25.75 42.85 26.8 40.25 26.8
L 34.45 26.8 34.45 12.6 39.6 12.6
Q 42.35 12.6 43.75 13.6 45.2 14.6 45.2 16.5
M 55.45 24.15
L 50.75 24.15 49.95 26.8 46.25 26.8 51.5 12.6 54.7 12.6 59.95 26.8 56.3 26.8 55.45 24.15
M 51.55 21.5
L 54.65 21.5 53.1 16.55 51.55 21.5
M 41.55 23.75
Q 42.05 23.3 42.05 22.55 42.05 20.75 40.3 20.75
L 37.9 20.75 37.9 24.15 40.15 24.15
Q 41.1 24.15 41.55 23.75
M 41.75 16.9
Q 41.75 16 41.25 15.6 40.75 15.2 39.6 15.2
L 37.9 15.2 37.9 18.5 39.7 18.5
Q 40.8 18.5 41.3 18.1 41.75 17.7 41.75 16.9
M 68.55 17.2
Q 68.55 16.25 68.05 15.75 67.55 15.2 66.55 15.2
L 64.4 15.2 64.4 19.15 66.55 19.15
Q 67.55 19.15 68.05 18.6 68.55 18.1 68.55 17.2
M 22.35 82.65
Q 26.65 83.55 31 84.2 49.85 86.95 68.7 84.2 73.05 83.55 77.35 82.65
L 22.35 82.65 Z"/>
</g>
<path id="barbarbar2" stroke="#000000" stroke-width="6" stroke-linejoin="round" stroke-linecap="round" fill="none" d="
M 77.35 82.65
Q 83.05 80.6 82.85 74.65
L 82.85 61.9
Q 83.05 55.95 77.35 53.9
M 80.65 23.1
L 80.65 15.6
Q 80.85 9.65 75.15 7.6
L 30.15 7.6
Q 24.45 9.65 24.65 15.6
L 24.65 23.1
Q 24.65 23.2 24.65 23.25 24.55 27.05 26.9 29.25 28 30.25 29.65 30.9 29.9 31 30.15 31.1
L 48.15 31.1
M 49.35 30.9
L 49.15 30.9
M 49.35 31.1
L 75.15 31.1
Q 80.8 29.1 80.65 23.25
M 48.15 31.1
L 49.35 31.1
M 76.25 53.75
Q 76.4 52.75 76.35 51.65
L 76.35 38.9
Q 76.5 33.85 72.5 31.65
M 15.85 30.9
Q 10.15 32.95 10.35 38.9
L 10.35 51.65
Q 10.15 57.6 15.85 59.65 16.4 59.75 17 59.9
M 29.65 30.9
L 15.85 30.9
M 77.35 82.65
L 22.35 82.65
Q 16.65 80.6 16.85 74.65
L 16.85 61.9"/>
</defs>

<g transform="translate(0, 0)">
<use xlink:href="#bar_fill"/>
<use xlink:href="#bar_stroke"/>
</g>
<g transform="translate(0, 90)">
<use xlink:href="#seven"/>
</g>
<g transform="translate(0, 180)">
<use xlink:href="#cherry1"/>
<use xlink:href="#cherry2"/>
<use xlink:href="#cherry3"/>
<use xlink:href="#cherry4"/>
<use xlink:href="#cherry5"/>
</g>
<g transform="translate(0, 270)">
<use xlink:href="#lemon1"/>
<use xlink:href="#lemon2"/>
</g>
<g transform="translate(0, 360)">
<use xlink:href="#barbar1"/>
<use xlink:href="#barbar2"/>
</g>
<g transform="translate(0, 450)">
<use xlink:href="#watermelon1"/>
<use xlink:href="#watermelon2"/>
<use xlink:href="#watermelon3"/>
</g>
<g transform="translate(0, 540)">
<use xlink:href="#barbarbar1"/>
<use xlink:href="#barbarbar2"/>
</g>
<g transform="translate(0, 630)">
<use xlink:href="#banana"/>
</g>
</svg>
