
<svg xmlns="http://www.w3.org/2000/svg" version="1.1" xmlns:xlink="http://www.w3.org/1999/xlink" preserveAspectRatio="none" x="0px" y="0px" width="72px" height="51px" viewBox="0 0 72 51">
<defs>
<g id="Layer0_0_FILL">
<path fill="#000000" stroke="none" d="
M 69 13.45
Q 69.2 7.5 63.5 5.45 33.05 0.55 8.5 5.45 2.8 7.5 3 13.45
L 3 37.7
Q 2.8 43.65 8.5 45.7 36 51.55 63.5 45.7 69.2 43.65 69 37.7
L 69 13.45
M 61.7 16.9
Q 63.85 18.6 63.85 21.65 63.85 23.9 62.95 25.35 62 26.8 60.1 27.7
L 64.55 36.35 64.55 36.55 59.05 36.55 55.3 29 52.5 29 52.5 36.55 47.35 36.55 47.35 15.2 55.75 15.2
Q 59.55 15.2 61.7 16.9
M 21.55 16.75
Q 23.7 18.25 23.7 21.1 23.7 22.75 22.9 23.95 22.15 25.1 20.7 25.65 22.35 26.1 23.25 27.3 24.15 28.5 24.15 30.25 24.15 33.35 22.15 34.95 20.15 36.5 16.25 36.55
L 7.6 36.55 7.6 15.2 15.25 15.2
Q 19.4 15.2 21.55 16.75
M 33.15 15.2
L 37.95 15.2 45.85 36.55 40.3 36.55 39.1 32.55 32.05 32.55 30.8 36.55 25.3 36.55 33.15 15.2
M 33.25 28.6
L 37.85 28.6 35.55 21.2 33.25 28.6
M 19 30.15
Q 19 27.5 16.35 27.5
L 12.75 27.5 12.75 32.6 16.1 32.6
Q 17.5 32.6 18.25 31.95 19 31.3 19 30.15
M 12.75 19.2
L 12.75 24.1 15.45 24.1
Q 17.1 24.1 17.85 23.5 18.55 22.9 18.55 21.75 18.55 20.35 17.8 19.8 17 19.2 15.25 19.2
L 12.75 19.2
M 58.7 22.15
Q 58.7 20.75 57.95 19.95 57.2 19.2 55.75 19.2
L 52.5 19.2 52.5 25.05 55.75 25.05
Q 57.2 25.05 57.95 24.25 58.7 23.5 58.7 22.15 Z"/>

<path fill="#FFFFFF" stroke="none" d="
M 37.95 15.2
L 33.15 15.2 25.3 36.55 30.8 36.55 32.05 32.55 39.1 32.55 40.3 36.55 45.85 36.55 37.95 15.2
M 37.85 28.6
L 33.25 28.6 35.55 21.2 37.85 28.6
M 23.7 21.1
Q 23.7 18.25 21.55 16.75 19.4 15.2 15.25 15.2
L 7.6 15.2 7.6 36.55 16.25 36.55
Q 20.15 36.5 22.15 34.95 24.15 33.35 24.15 30.25 24.15 28.5 23.25 27.3 22.35 26.1 20.7 25.65 22.15 25.1 22.9 23.95 23.7 22.75 23.7 21.1
M 12.75 24.1
L 12.75 19.2 15.25 19.2
Q 17 19.2 17.8 19.8 18.55 20.35 18.55 21.75 18.55 22.9 17.85 23.5 17.1 24.1 15.45 24.1
L 12.75 24.1
M 16.35 27.5
Q 19 27.5 19 30.15 19 31.3 18.25 31.95 17.5 32.6 16.1 32.6
L 12.75 32.6 12.75 27.5 16.35 27.5
M 63.85 21.65
Q 63.85 18.6 61.7 16.9 59.55 15.2 55.75 15.2
L 47.35 15.2 47.35 36.55 52.5 36.55 52.5 29 55.3 29 59.05 36.55 64.55 36.55 64.55 36.35 60.1 27.7
Q 62 26.8 62.95 25.35 63.85 23.9 63.85 21.65
M 57.95 19.95
Q 58.7 20.75 58.7 22.15 58.7 23.5 57.95 24.25 57.2 25.05 55.75 25.05
L 52.5 25.05 52.5 19.2 55.75 19.2
Q 57.2 19.2 57.95 19.95 Z"/>
</g>

<path id="Layer0_0_1_STROKES" stroke="#000000" stroke-width="6" stroke-linejoin="round" stroke-linecap="round" fill="none" d="
M 8.5 5.45
Q 2.8 7.5 3 13.45
L 3 37.7
Q 2.8 43.65 8.5 45.7 36 51.55 63.5 45.7 69.2 43.65 69 37.7
L 69 13.45
Q 69.2 7.5 63.5 5.45 33.05 0.55 8.5 5.45 Z"/>
</defs>

<g transform="matrix( 1, 0, 0, 1, 0,0) ">
<use xlink:href="#Layer0_0_FILL"/>

<use xlink:href="#Layer0_0_1_STROKES"/>
</g>
</svg>
