
<svg xmlns="http://www.w3.org/2000/svg" version="1.1" xmlns:xlink="http://www.w3.org/1999/xlink" preserveAspectRatio="none" x="0px" y="0px" width="79px" height="78px" viewBox="0 0 79 78">
<defs>
<g id="Layer0_0_FILL">
<path fill="#FFFFFF" stroke="none" d="
M 6.45 33.65
Q 2 38.15 2 44.45 2 50.75 6.45 55.2 10.95 59.7 17.25 59.7 19.5 59.7 21.5 59.15 21 56.9 21 54.45 21 46.05 26.9 40.1 28.65 38.35 30.65 37.15 29.6 35.25 28 33.65 27.1 32.75 26.15 32.05 25.2 31.35 24.15 30.8 23.8 30.65 23.45 30.5 22.65 30.1 21.8 29.85 19.65 29.2 17.25 29.2 10.95 29.2 6.45 33.65
M 55.55 40.1
Q 49.65 34.2 41.25 34.2 40.8 34.2 40.4 34.25 39.6 34.25 38.8 34.35 34.35 34.85 30.65 37.15 28.65 38.35 26.9 40.1 21 46.05 21 54.45 21 56.9 21.5 59.15 22.7 64.55 26.9 68.75 32.85 74.7 41.25 74.7 49.65 74.7 55.55 68.75 61.5 62.85 61.5 54.45 61.5 46.05 55.55 40.1
M 42.55 45.6
Q 41.55 43.85 42.2 42.7 42.35 42.45 42.5 42.3 43.3 41.55 44.85 41.6 46.85 41.65 49.05 42.9 51.2 44.15 52.2 45.85 53.3 47.5 52.6 48.7 51.95 49.85 49.9 49.85 47.95 49.75 45.8 48.5 45.15 48.15 44.6 47.7 43.3 46.75 42.55 45.6
M 37.2 57.95
Q 37.2 57.8 37.2 57.65 36.5 57.75 35.75 57.75 33.25 57.75 31.5 56.8 29.75 55.85 29.75 54.5 29.75 53.15 31.5 52.2 33.25 51.25 35.75 51.25 38.25 51.25 40 52.2 41.4 52.95 41.7 54 43 54.1 44 55.1 45.2 56.3 45.2 57.95 45.2 59.6 44 60.75 42.85 61.95 41.2 61.95 39.55 61.95 38.35 60.75 37.2 59.6 37.2 57.95 Z"/>

<path fill="#000000" stroke="none" d="
M 42.2 42.7
Q 41.55 43.85 42.55 45.6 43.3 46.75 44.6 47.7 45.15 48.15 45.8 48.5 47.95 49.75 49.9 49.85 51.95 49.85 52.6 48.7 53.3 47.5 52.2 45.85 51.2 44.15 49.05 42.9 46.85 41.65 44.85 41.6 43.3 41.55 42.5 42.3 42.35 42.45 42.2 42.7 Z"/>
</g>

<path id="Layer0_0_1_STROKES" stroke="#000000" stroke-width="4" stroke-linejoin="round" stroke-linecap="round" fill="none" d="
M 21.5 59.15
Q 19.5 59.7 17.25 59.7 10.95 59.7 6.45 55.2 2 50.75 2 44.45 2 38.15 6.45 33.65 10.95 29.2 17.25 29.2 19.65 29.2 21.8 29.85 22.65 30.1 23.45 30.5 23.8 30.65 24.15 30.8 25.2 31.35 26.15 32.05 27.1 32.75 28 33.65 29.6 35.25 30.65 37.15"/>

<path id="Layer0_0_2_STROKES" stroke="#000000" stroke-width="8" stroke-linejoin="round" stroke-linecap="round" fill="none" d="
M 27 29.5
L 37.35 20.7 43.25 32.95"/>

<path id="Layer0_0_3_STROKES" stroke="#000000" stroke-width="7" stroke-linejoin="round" stroke-linecap="round" fill="none" d="
M 30.65 37.15
Q 34.35 34.85 38.8 34.35 39.6 34.25 40.4 34.25 40.8 34.2 41.25 34.2 49.65 34.2 55.55 40.1 61.5 46.05 61.5 54.45 61.5 62.85 55.55 68.75 49.65 74.7 41.25 74.7 32.85 74.7 26.9 68.75 22.7 64.55 21.5 59.15
M 30.65 37.15
Q 28.65 38.35 26.9 40.1 21 46.05 21 54.45 21 56.9 21.5 59.15
M 76.45 4.95
Q 52.5 -2 45.95 23.95 69.65 23.85 76.45 4.95 Z"/>

<path id="Layer0_0_4_STROKES" stroke="#000000" stroke-width="2" stroke-linejoin="round" stroke-linecap="round" fill="none" d="
M 42.2 42.7
Q 41.55 43.85 42.55 45.6 43.3 46.75 44.6 47.7 45.15 48.15 45.8 48.5 47.95 49.75 49.9 49.85 51.95 49.85 52.6 48.7 53.3 47.5 52.2 45.85 51.2 44.15 49.05 42.9 46.85 41.65 44.85 41.6 43.3 41.55 42.5 42.3 42.35 42.45 42.2 42.7 Z"/>
</defs>

<g transform="matrix( 1, 0, 0, 1, 0,0) ">
<use xlink:href="#Layer0_0_FILL"/>

<use xlink:href="#Layer0_0_1_STROKES"/>

<use xlink:href="#Layer0_0_2_STROKES"/>

<use xlink:href="#Layer0_0_3_STROKES"/>

<use xlink:href="#Layer0_0_4_STROKES"/>
</g>
</svg>
