
<svg xmlns="http://www.w3.org/2000/svg" version="1.1" xmlns:xlink="http://www.w3.org/1999/xlink" preserveAspectRatio="none" x="0px" y="0px" width="78px" height="81px" viewBox="0 0 78 81">
<defs>
<g id="Layer0_0_FILL">
<path fill="#000000" stroke="none" d="
M 63.75 56.7
Q 62.65 55.85 61.1 55.55 60.1 55.35 58.9 55.35
L 52.05 55.35 52.05 72.75 56.25 72.75 56.25 66.6 58.55 66.6 61.6 72.75 66.1 72.75 66.1 72.55 62.45 65.55
Q 64.05 64.8 64.8 63.6 65.5 62.4 65.5 60.6 65.5 58.1 63.75 56.7
M 61.3 61
Q 61.3 62.1 60.75 62.75 60.1 63.35 58.9 63.35
L 56.25 63.35 56.25 58.55 58.9 58.55
Q 60.1 58.55 60.7 59.2 61.3 59.85 61.3 61
M 70 78.05
L 15 78.05
Q 42.5 83.9 70 78.05
M 38.55 72.75
L 39.55 69.5 45.3 69.5 46.3 72.75 50.85 72.75 44.4 55.35 40.45 55.35 34.05 72.75 38.55 72.75
M 44.3 66.25
L 40.55 66.25 42.4 60.2 44.3 66.25
M 32.25 57.95
Q 31.8 57.1 31 56.55 29.25 55.35 25.85 55.35
L 19.6 55.35 19.6 72.75 26.7 72.75
Q 29.85 72.75 31.5 71.45 33.1 70.15 33.1 67.6 33.1 66.2 32.4 65.2 31.65 64.2 30.3 63.85 31.5 63.4 32.1 62.45 32.75 61.5 32.75 60.15 32.75 58.85 32.25 57.95
M 25.85 58.55
Q 27.3 58.55 27.9 59.05 28.55 59.55 28.55 60.65 28.55 61.6 27.95 62.1 27.4 62.6 26 62.6
L 23.8 62.6 23.8 58.55 25.85 58.55
M 23.8 69.5
L 23.8 65.35 26.75 65.35
Q 28.9 65.35 28.9 67.55 28.9 68.5 28.3 69 27.7 69.5 26.55 69.5
L 23.8 69.5
M 37.9 32.35
L 33.95 32.35 27.55 49.75 32.05 49.75 33.05 46.5 38.8 46.5 39.8 49.75 44.35 49.75 37.9 32.35
M 34.05 43.25
L 35.9 37.2 37.8 43.25 34.05 43.25
M 19.35 32.35
L 13.1 32.35 13.1 49.75 20.2 49.75
Q 23.35 49.75 25 48.45 26.6 47.15 26.6 44.6 26.6 43.2 25.9 42.2 25.15 41.2 23.8 40.85 25 40.4 25.6 39.45 26.25 38.5 26.25 37.15 26.25 34.8 24.5 33.55 22.75 32.35 19.35 32.35
M 17.3 46.5
L 17.3 42.35 20.25 42.35
Q 22.4 42.35 22.4 44.55 22.4 45.5 21.8 46 21.2 46.5 20.05 46.5
L 17.3 46.5
M 17.3 39.6
L 17.3 35.55 19.35 35.55
Q 20.8 35.55 21.4 36.05 22.05 36.55 22.05 37.65 22.05 38.6 21.45 39.1 20.9 39.6 19.5 39.6
L 17.3 39.6
M 57.25 33.7
Q 55.5 32.35 52.4 32.35
L 45.55 32.35 45.55 49.75 49.75 49.75 49.75 43.6 52.05 43.6 55.1 49.75 59.6 49.75 59.6 49.55 55.95 42.55
Q 57.55 41.8 58.3 40.6 59 39.4 59 37.6 59 35.1 57.25 33.7
M 52.4 35.55
Q 53.6 35.55 54.2 36.2 54.8 36.85 54.8 38 54.8 39.1 54.25 39.75 53.6 40.35 52.4 40.35
L 49.75 40.35 49.75 35.55 52.4 35.55
M 40.8 26.5
L 22.8 26.5
Q 31.6 28.4 40.8 26.5
M 22.3 26.3
Q 20.65 25.65 19.55 24.65 13.9 25.25 8.5 26.3
L 22.3 26.3
M 42 26.5
L 42 27.4
Q 46 28 50 28.1 51 28.15 52 28.15 58.5 28.2 65.15 27.05 66.45 26.8 67.8 26.5
L 42 26.5
M 52 1.1
L 52 0.6
Q 51 0.55 50 0.55 46.7 0.55 43.55 0.65 42.75 0.6 42 0.6
L 42 0.7
Q 32 1.15 22.8 3
L 67.8 3
Q 59.7 1.7 52 1.1
M 73.3 18.65
Q 73.3 18.6 73.3 18.5
L 73.3 11
Q 73.5 5.05 67.8 3
L 22.8 3
Q 17.1 5.05 17.3 11
L 17.3 18.5
Q 17.3 18.6 17.3 18.65 17.2 22.45 19.55 24.65 20.65 25.65 22.3 26.3 22.55 26.4 22.8 26.5
L 40.8 26.5
Q 41.3 26.4 41.8 26.3
L 42 26.3 42 26.5 67.8 26.5
Q 73.45 24.5 73.3 18.65
M 63.2 9.1
Q 64.6 10.25 64.6 12.3 64.6 13.75 64 14.75 63.4 15.7 62.1 16.3
L 65.1 22.05 65.1 22.2 61.4 22.2 58.9 17.15 57.05 17.15 57.05 22.2 53.6 22.2 53.6 8 59.2 8
Q 61.75 8 63.2 9.1
M 44.15 8
L 47.35 8 52.6 22.2 48.95 22.2 48.1 19.55 43.4 19.55 42.6 22.2 38.9 22.2 44.15 8
M 32.25 8
Q 35 8 36.4 9 37.85 10 37.85 11.9 37.85 13 37.35 13.8 36.8 14.55 35.85 14.95 36.95 15.25 37.55 16.05 38.15 16.85 38.15 18 38.15 20.1 36.8 21.15 35.5 22.2 32.9 22.2
L 27.1 22.2 27.1 8 32.25 8
M 32.95 16.15
L 30.55 16.15 30.55 19.55 32.8 19.55
Q 33.75 19.55 34.2 19.15 34.7 18.7 34.7 17.95 34.7 16.15 32.95 16.15
M 34.4 12.3
Q 34.4 11.4 33.9 11 33.4 10.6 32.25 10.6
L 30.55 10.6 30.55 13.9 32.35 13.9
Q 33.45 13.9 33.95 13.5 34.4 13.1 34.4 12.3
M 44.2 16.9
L 47.3 16.9 45.75 11.95 44.2 16.9
M 60.7 11.15
Q 60.2 10.6 59.2 10.6
L 57.05 10.6 57.05 14.55 59.2 14.55
Q 60.2 14.55 60.7 14 61.2 13.5 61.2 12.6 61.2 11.65 60.7 11.15 Z"/>

<path fill="#FFFFFF" stroke="none" d="
M 36.4 9
Q 35 8 32.25 8
L 27.1 8 27.1 22.2 32.9 22.2
Q 35.5 22.2 36.8 21.15 38.15 20.1 38.15 18 38.15 16.85 37.55 16.05 36.95 15.25 35.85 14.95 36.8 14.55 37.35 13.8 37.85 13 37.85 11.9 37.85 10 36.4 9
M 33.9 11
Q 34.4 11.4 34.4 12.3 34.4 13.1 33.95 13.5 33.45 13.9 32.35 13.9
L 30.55 13.9 30.55 10.6 32.25 10.6
Q 33.4 10.6 33.9 11
M 30.55 16.15
L 32.95 16.15
Q 34.7 16.15 34.7 17.95 34.7 18.7 34.2 19.15 33.75 19.55 32.8 19.55
L 30.55 19.55 30.55 16.15
M 47.35 8
L 44.15 8 38.9 22.2 42.6 22.2 43.4 19.55 48.1 19.55 48.95 22.2 52.6 22.2 47.35 8
M 47.3 16.9
L 44.2 16.9 45.75 11.95 47.3 16.9
M 64.6 12.3
Q 64.6 10.25 63.2 9.1 61.75 8 59.2 8
L 53.6 8 53.6 22.2 57.05 22.2 57.05 17.15 58.9 17.15 61.4 22.2 65.1 22.2 65.1 22.05 62.1 16.3
Q 63.4 15.7 64 14.75 64.6 13.75 64.6 12.3
M 59.2 10.6
Q 60.2 10.6 60.7 11.15 61.2 11.65 61.2 12.6 61.2 13.5 60.7 14 60.2 14.55 59.2 14.55
L 57.05 14.55 57.05 10.6 59.2 10.6 Z"/>
</g>

<path id="Layer0_0_1_STROKES" stroke="#000000" stroke-width="6" stroke-linejoin="round" stroke-linecap="round" fill="none" d="
M 73.3 18.5
L 73.3 11
Q 73.5 5.05 67.8 3
L 22.8 3
Q 17.1 5.05 17.3 11
L 17.3 18.5
Q 17.3 18.6 17.3 18.65 17.2 22.45 19.55 24.65 20.65 25.65 22.3 26.3 22.55 26.4 22.8 26.5
L 40.8 26.5
M 42 26.3
L 41.8 26.3
M 42 26.5
L 67.8 26.5
Q 73.45 24.5 73.3 18.65
M 40.8 26.5
L 42 26.5
M 68.9 49.15
Q 69.05 48.15 69 47.05
L 69 34.3
Q 69.15 29.25 65.15 27.05
M 8.5 26.3
Q 2.8 28.35 3 34.3
L 3 47.05
Q 2.8 53 8.5 55.05 9.05 55.15 9.65 55.3
M 22.3 26.3
L 8.5 26.3
M 9.5 57.3
L 9.5 70.05
Q 9.3 76 15 78.05
L 70 78.05
Q 75.7 76 75.5 70.05
L 75.5 57.3
Q 75.7 51.35 70 49.3"/>
</defs>

<g transform="matrix( 1, 0, 0, 1, 0,0) ">
<use xlink:href="#Layer0_0_FILL"/>

<use xlink:href="#Layer0_0_1_STROKES"/>
</g>
</svg>
