
<svg xmlns="http://www.w3.org/2000/svg" version="1.1" xmlns:xlink="http://www.w3.org/1999/xlink" preserveAspectRatio="none" x="0px" y="0px" width="78px" height="57px" viewBox="0 0 78 57">
<defs>
<g id="Layer0_0_FILL">
<path fill="#000000" stroke="none" d="
M 70 54.75
L 15 54.75
Q 42.5 60.6 70 54.75
M 8.5 3
L 63.5 3
Q 33.05 -1.9 8.5 3
M 69 23.75
L 69 11
Q 69.2 5.05 63.5 3
L 8.5 3
Q 2.8 5.05 3 11
L 3 23.75
Q 2.8 29.7 8.5 31.75 9.05 31.85 9.65 32 9.45 32.95 9.5 34
L 9.5 46.75
Q 9.3 52.7 15 54.75
L 70 54.75
Q 75.7 52.7 75.5 46.75
L 75.5 34
Q 75.7 28.05 70 26 69.45 25.9 68.9 25.85 69.05 24.85 69 23.75
M 52.4 9.05
Q 55.5 9.05 57.25 10.4 59 11.8 59 14.3 59 16.1 58.3 17.3 57.55 18.5 55.95 19.25
L 59.6 26.25 59.6 26.45 55.1 26.45 52.05 20.3 49.75 20.3 49.75 26.45 45.55 26.45 45.55 9.05 52.4 9.05
M 52.05 32.05
L 58.9 32.05
Q 60.1 32.05 61.1 32.25 62.65 32.55 63.75 33.4 65.5 34.8 65.5 37.3 65.5 39.1 64.8 40.3 64.05 41.5 62.45 42.25
L 66.1 49.25 66.1 49.45 61.6 49.45 58.55 43.3 56.25 43.3 56.25 49.45 52.05 49.45 52.05 32.05
M 46.3 49.45
L 45.3 46.2 39.55 46.2 38.55 49.45 34.05 49.45 40.45 32.05 44.4 32.05 50.85 49.45 46.3 49.45
M 33.95 9.05
L 37.9 9.05 44.35 26.45 39.8 26.45 38.8 23.2 33.05 23.2 32.05 26.45 27.55 26.45 33.95 9.05
M 25.6 16.15
Q 25 17.1 23.8 17.55 25.15 17.9 25.9 18.9 26.6 19.9 26.6 21.3 26.6 23.85 25 25.15 23.35 26.45 20.2 26.45
L 13.1 26.45 13.1 9.05 19.35 9.05
Q 22.75 9.05 24.5 10.25 26.25 11.5 26.25 13.85 26.25 15.2 25.6 16.15
M 19.6 49.45
L 19.6 32.05 25.85 32.05
Q 29.25 32.05 31 33.25 31.8 33.8 32.25 34.65 32.75 35.55 32.75 36.85 32.75 38.2 32.1 39.15 31.5 40.1 30.3 40.55 31.65 40.9 32.4 41.9 33.1 42.9 33.1 44.3 33.1 46.85 31.5 48.15 29.85 49.45 26.7 49.45
L 19.6 49.45
M 26.55 46.2
Q 27.7 46.2 28.3 45.7 28.9 45.2 28.9 44.25 28.9 42.05 26.75 42.05
L 23.8 42.05 23.8 46.2 26.55 46.2
M 25.85 35.25
L 23.8 35.25 23.8 39.3 26 39.3
Q 27.4 39.3 27.95 38.8 28.55 38.3 28.55 37.35 28.55 36.25 27.9 35.75 27.3 35.25 25.85 35.25
M 21.8 22.7
Q 22.4 22.2 22.4 21.25 22.4 19.05 20.25 19.05
L 17.3 19.05 17.3 23.2 20.05 23.2
Q 21.2 23.2 21.8 22.7
M 21.45 15.8
Q 22.05 15.3 22.05 14.35 22.05 13.25 21.4 12.75 20.8 12.25 19.35 12.25
L 17.3 12.25 17.3 16.3 19.5 16.3
Q 20.9 16.3 21.45 15.8
M 37.8 19.95
L 35.9 13.9 34.05 19.95 37.8 19.95
M 40.55 42.95
L 44.3 42.95 42.4 36.9 40.55 42.95
M 60.7 35.9
Q 60.1 35.25 58.9 35.25
L 56.25 35.25 56.25 40.05 58.9 40.05
Q 60.1 40.05 60.75 39.45 61.3 38.8 61.3 37.7 61.3 36.55 60.7 35.9
M 54.8 14.7
Q 54.8 13.55 54.2 12.9 53.6 12.25 52.4 12.25
L 49.75 12.25 49.75 17.05 52.4 17.05
Q 53.6 17.05 54.25 16.45 54.8 15.8 54.8 14.7 Z"/>

<path fill="#FFFFFF" stroke="none" d="
M 19.6 32.05
L 19.6 49.45 26.7 49.45
Q 29.85 49.45 31.5 48.15 33.1 46.85 33.1 44.3 33.1 42.9 32.4 41.9 31.65 40.9 30.3 40.55 31.5 40.1 32.1 39.15 32.75 38.2 32.75 36.85 32.75 35.55 32.25 34.65 31.8 33.8 31 33.25 29.25 32.05 25.85 32.05
L 19.6 32.05
M 23.8 35.25
L 25.85 35.25
Q 27.3 35.25 27.9 35.75 28.55 36.25 28.55 37.35 28.55 38.3 27.95 38.8 27.4 39.3 26 39.3
L 23.8 39.3 23.8 35.25
M 28.3 45.7
Q 27.7 46.2 26.55 46.2
L 23.8 46.2 23.8 42.05 26.75 42.05
Q 28.9 42.05 28.9 44.25 28.9 45.2 28.3 45.7
M 23.8 17.55
Q 25 17.1 25.6 16.15 26.25 15.2 26.25 13.85 26.25 11.5 24.5 10.25 22.75 9.05 19.35 9.05
L 13.1 9.05 13.1 26.45 20.2 26.45
Q 23.35 26.45 25 25.15 26.6 23.85 26.6 21.3 26.6 19.9 25.9 18.9 25.15 17.9 23.8 17.55
M 22.05 14.35
Q 22.05 15.3 21.45 15.8 20.9 16.3 19.5 16.3
L 17.3 16.3 17.3 12.25 19.35 12.25
Q 20.8 12.25 21.4 12.75 22.05 13.25 22.05 14.35
M 22.4 21.25
Q 22.4 22.2 21.8 22.7 21.2 23.2 20.05 23.2
L 17.3 23.2 17.3 19.05 20.25 19.05
Q 22.4 19.05 22.4 21.25
M 37.9 9.05
L 33.95 9.05 27.55 26.45 32.05 26.45 33.05 23.2 38.8 23.2 39.8 26.45 44.35 26.45 37.9 9.05
M 35.9 13.9
L 37.8 19.95 34.05 19.95 35.9 13.9
M 45.3 46.2
L 46.3 49.45 50.85 49.45 44.4 32.05 40.45 32.05 34.05 49.45 38.55 49.45 39.55 46.2 45.3 46.2
M 44.3 42.95
L 40.55 42.95 42.4 36.9 44.3 42.95
M 58.9 32.05
L 52.05 32.05 52.05 49.45 56.25 49.45 56.25 43.3 58.55 43.3 61.6 49.45 66.1 49.45 66.1 49.25 62.45 42.25
Q 64.05 41.5 64.8 40.3 65.5 39.1 65.5 37.3 65.5 34.8 63.75 33.4 62.65 32.55 61.1 32.25 60.1 32.05 58.9 32.05
M 58.9 35.25
Q 60.1 35.25 60.7 35.9 61.3 36.55 61.3 37.7 61.3 38.8 60.75 39.45 60.1 40.05 58.9 40.05
L 56.25 40.05 56.25 35.25 58.9 35.25
M 57.25 10.4
Q 55.5 9.05 52.4 9.05
L 45.55 9.05 45.55 26.45 49.75 26.45 49.75 20.3 52.05 20.3 55.1 26.45 59.6 26.45 59.6 26.25 55.95 19.25
Q 57.55 18.5 58.3 17.3 59 16.1 59 14.3 59 11.8 57.25 10.4
M 54.2 12.9
Q 54.8 13.55 54.8 14.7 54.8 15.8 54.25 16.45 53.6 17.05 52.4 17.05
L 49.75 17.05 49.75 12.25 52.4 12.25
Q 53.6 12.25 54.2 12.9 Z"/>
</g>

<path id="Layer0_0_1_STROKES" stroke="#000000" stroke-width="6" stroke-linejoin="round" stroke-linecap="round" fill="none" d="
M 68.9 25.85
Q 69.05 24.85 69 23.75
L 69 11
Q 69.2 5.05 63.5 3
L 8.5 3
Q 2.8 5.05 3 11
L 3 23.75
Q 2.8 29.7 8.5 31.75 9.05 31.85 9.65 32
M 9.5 34
L 9.5 46.75
Q 9.3 52.7 15 54.75
L 70 54.75
Q 75.7 52.7 75.5 46.75
L 75.5 34
Q 75.7 28.05 70 26"/>
</defs>

<g transform="matrix( 1, 0, 0, 1, 0,0) ">
<use xlink:href="#Layer0_0_FILL"/>

<use xlink:href="#Layer0_0_1_STROKES"/>
</g>
</svg>
